<?xml version="1.0" encoding="UTF-8"?>
<svg width="170.92mm" height="126.74mm" version="1.1" viewBox="0 0 170.92 126.74" xmlns="http://www.w3.org/2000/svg" xmlns:cc="http://creativecommons.org/ns#" xmlns:dc="http://purl.org/dc/elements/1.1/" xmlns:rdf="http://www.w3.org/1999/02/22-rdf-syntax-ns#">
 <metadata>
  <rdf:RDF>
   <cc:Work rdf:about="">
    <dc:format>image/svg+xml</dc:format>
    <dc:type rdf:resource="http://purl.org/dc/dcmitype/StillImage"/>
    <dc:title/>
   </cc:Work>
  </rdf:RDF>
 </metadata>
 <g transform="matrix(1.2 0 0 1.2 -132.09 -106.78)">
  <g stroke-linecap="round">
   <g fill="#47d58a" stroke-width=".26458" aria-label="Ticker">
    <g stroke-linecap="round" stroke-width=".22049">
     <path d="m110.18 93.502v20.726l3.4451 3.0868h138.77v-20.726l-3.4451-3.0868z" fill="#1d232d" stroke="#009244"/>
     <path d="m110.18 89.093v4.4097h42.774v-1.3229l-3.4451-3.0868z" fill="#1d232d" stroke="#009244"/>
     <g fill="#47d58a" aria-label="PIXI">
      <path d="m112.44 92.51h0.45685v-0.68218h0.27781c0.42598 0 0.78714-0.2099 0.78714-0.68218 0-0.48772-0.34881-0.64823-0.78714-0.64823h-0.73466zm0.45685-1.0433v-0.6081h0.25003c0.24077 0 0.37042 0.07717 0.37042 0.28707s-0.12039 0.32103-0.37042 0.32103z"/>
      <path d="m114.31 92.51h0.45685v-2.0126h-0.45685z"/>
      <path d="m115.04 92.51h0.48463l0.18829-0.41054c0.0463-0.10495 0.0895-0.20682 0.13891-0.33029h0.0123c0.0525 0.12347 0.0988 0.22534 0.15125 0.33029l0.19756 0.41054h0.50624l-0.55563-1.0125 0.52167-1.0001h-0.48463l-0.16051 0.37968c-0.0401 0.0926-0.0803 0.19756-0.12656 0.32412h-0.0123c-0.0587-0.12656-0.10186-0.23151-0.14817-0.32412l-0.17286-0.37968h-0.50932l0.52476 0.97852z"/>
      <path d="m116.99 92.51h0.45685v-2.0126h-0.45685z"/>
     </g>
     <rect x="115.14" y="98.904" width="29.876" height="12.237" fill="#1d232d" stroke="#009244"/>
     <g fill="#47d58a" aria-label="Application">
      <path d="m123.38 105.33 0.0988-0.30868c0.071-0.22534 0.13582-0.44759 0.20064-0.68218h0.0123c0.0648 0.23459 0.12964 0.45684 0.20064 0.68218l0.0957 0.30868zm0.86739 0.82418h0.27164l-0.68527-2.025h-0.29016l-0.68527 2.025h0.26238l0.19447-0.61736h0.73774z"/>
      <path d="m125.02 106.02c0.1389 0.10804 0.27781 0.17286 0.41672 0.17286 0.34263 0 0.64823-0.29942 0.64823-0.80874 0-0.46611-0.20682-0.76553-0.59267-0.76553-0.17595 0-0.34264 0.0957-0.47846 0.2099h-9e-3l-0.0216-0.17286h-0.2099v2.133h0.25312v-0.50624zm6e-3 -0.19755v-0.78714c0.14817-0.13273 0.27473-0.20373 0.40129-0.20373 0.28398 0 0.39511 0.22225 0.39511 0.55254 0 0.37042-0.18212 0.59575-0.42907 0.59575-0.0988 0-0.23151-0.0432-0.36733-0.15742z"/>
      <path d="m126.73 106.02c0.13891 0.10804 0.27781 0.17286 0.41672 0.17286 0.34264 0 0.64823-0.29942 0.64823-0.80874 0-0.46611-0.20682-0.76553-0.59267-0.76553-0.17595 0-0.34263 0.0957-0.47845 0.2099h-9e-3l-0.0216-0.17286h-0.2099v2.133h0.25311v-0.50624zm6e-3 -0.19755v-0.78714c0.14817-0.13273 0.27473-0.20373 0.40129-0.20373 0.28399 0 0.39511 0.22225 0.39511 0.55254 0 0.37042-0.18212 0.59575-0.42906 0.59575-0.0988 0-0.23152-0.0432-0.36734-0.15742z"/>
      <path d="m128.19 105.85c0 0.21917 0.0772 0.33955 0.26855 0.33955 0.0679 0 0.11113-9e-3 0.14508-0.0247l-0.0339-0.19138c-0.0278 6e-3 -0.0401 6e-3 -0.0556 6e-3 -0.037 0-0.071-0.0309-0.071-0.11113v-1.9138h-0.25312z"/>
      <path d="m129.11 104.35c0.0988 0 0.17594-0.0679 0.17594-0.1636 0-0.0988-0.0772-0.1636-0.17594-0.1636-0.0988 0-0.17595 0.0648-0.17595 0.1636 0 0.0957 0.0772 0.1636 0.17595 0.1636zm-0.12965 1.8089h0.25312v-1.5002h-0.25312z"/>
      <path d="m129.63 105.41c0 0.49698 0.30559 0.78405 0.70379 0.78405 0.17904 0 0.3519-0.0741 0.48772-0.19447l-0.11421-0.16668c-0.0895 0.0802-0.20991 0.15125-0.3519 0.15125-0.27473 0-0.46302-0.23151-0.46302-0.57415 0-0.34572 0.19756-0.58032 0.46919-0.58032 0.12039 0 0.21299 0.0556 0.30251 0.13274l0.12656-0.16361c-0.10186-0.0957-0.24077-0.17903-0.43833-0.17903-0.38585 0-0.72231 0.28707-0.72231 0.79022z"/>
      <path d="m131.04 105.77c0 0.26856 0.18829 0.42598 0.44141 0.42598 0.18521 0 0.3519-0.0988 0.49698-0.21607h6e-3l0.0216 0.17903h0.2099v-0.91987c0-0.3735-0.15434-0.61736-0.52167-0.61736-0.24077 0-0.45067 0.10495-0.58958 0.19447l0.10186 0.17595c0.1173-0.0803 0.27164-0.16052 0.44759-0.16052 0.24386 0 0.30868 0.18521 0.30868 0.37659-0.63897 0.071-0.92295 0.2346-0.92295 0.5618zm0.25003-0.0185c0-0.19138 0.16977-0.31485 0.67292-0.37659v0.41672c-0.14508 0.12965-0.26546 0.20064-0.41054 0.20064-0.14817 0-0.26238-0.071-0.26238-0.24077z"/>
      <path d="m132.74 105.69c0 0.29633 0.10804 0.50006 0.42907 0.50006 0.0926 0 0.19447-0.0278 0.27781-0.0556l-0.0494-0.19138c-0.0494 0.0185-0.1173 0.0401-0.16978 0.0401-0.17286 0-0.23151-0.10495-0.23151-0.29016v-0.83344h0.40437v-0.20682h-0.40437v-0.4198h-0.21299l-0.0309 0.4198-0.2346 0.0154v0.19138h0.22225z"/>
      <path d="m133.87 104.35c0.0988 0 0.17595-0.0679 0.17595-0.1636 0-0.0988-0.0772-0.1636-0.17595-0.1636-0.0988 0-0.17595 0.0648-0.17595 0.1636 0 0.0957 0.0772 0.1636 0.17595 0.1636zm-0.12965 1.8089h0.25312v-1.5002h-0.25312z"/>
      <path d="m134.39 105.41c0 0.49698 0.3272 0.78405 0.69454 0.78405 0.36733 0 0.69453-0.28707 0.69453-0.78405 0-0.50315-0.3272-0.79022-0.69453-0.79022-0.36734 0-0.69454 0.28707-0.69454 0.79022zm0.26238 0c0-0.34572 0.17595-0.58032 0.43216-0.58032 0.25929 0 0.43215 0.2346 0.43215 0.58032 0 0.34264-0.17286 0.57415-0.43215 0.57415-0.25621 0-0.43216-0.23151-0.43216-0.57415z"/>
      <path d="m136.18 106.16h0.25312v-1.0866c0.15125-0.15125 0.2562-0.23151 0.41054-0.23151 0.19756 0 0.28399 0.12039 0.28399 0.40129v0.91678h0.25312v-0.95074c0-0.38276-0.14199-0.58649-0.45685-0.58649-0.20682 0-0.36116 0.11113-0.50315 0.25312h-9e-3l-0.0216-0.21608h-0.2099z"/>
     </g>
     <rect x="150.42" y="98.904" width="29.876" height="12.237" fill="#1d232d" stroke="#009244"/>
     <g fill="#47d58a" aria-label="Ticker">
      <path d="m162.26 106.16h0.2562v-1.8089h0.61428v-0.21608h-1.4848v0.21608h0.61428z"/>
      <path d="m163.59 104.35c0.0988 0 0.17595-0.0679 0.17595-0.1636 0-0.0988-0.0772-0.1636-0.17595-0.1636-0.0988 0-0.17594 0.0648-0.17594 0.1636 0 0.0957 0.0772 0.1636 0.17594 0.1636zm-0.12964 1.8089h0.25312v-1.5002h-0.25312z"/>
      <path d="m164.11 105.41c0 0.49698 0.30559 0.78405 0.70379 0.78405 0.17904 0 0.3519-0.0741 0.48772-0.19447l-0.11422-0.16668c-0.0895 0.0802-0.2099 0.15125-0.35189 0.15125-0.27473 0-0.46302-0.23151-0.46302-0.57415 0-0.34572 0.19755-0.58032 0.46919-0.58032 0.12039 0 0.21299 0.0556 0.30251 0.13274l0.12656-0.16361c-0.10187-0.0957-0.24077-0.17903-0.43833-0.17903-0.38585 0-0.72231 0.28707-0.72231 0.79022z"/>
      <path d="m165.63 106.16h0.25003v-0.39511l0.2809-0.3272 0.43833 0.72231h0.27781l-0.57106-0.89826 0.50315-0.60193h-0.2809l-0.63896 0.79023h-9e-3v-1.4878h-0.25003z"/>
      <path d="m166.99 105.41c0 0.49081 0.31794 0.78405 0.71922 0.78405 0.20373 0 0.36425-0.071 0.49389-0.15434l-0.0895-0.16669c-0.11112 0.071-0.23151 0.1173-0.3735 0.1173-0.28707 0-0.48154-0.20373-0.50006-0.52784h1.0125c6e-3 -0.037 9e-3 -0.0864 9e-3 -0.13891 0-0.42906-0.21608-0.70379-0.59884-0.70379-0.34264 0-0.67292 0.29942-0.67292 0.79022zm0.24694-0.11421c0.0309-0.30251 0.22225-0.47537 0.43215-0.47537 0.2346 0 0.37042 0.16978 0.37042 0.47537z"/>
      <path d="m168.63 106.16h0.25312v-0.96308c0.10186-0.25312 0.25312-0.34573 0.37967-0.34573 0.0617 0 0.0957 9e-3 0.14508 0.0247l0.0494-0.22225c-0.0494-0.0216-0.0957-0.0309-0.16051-0.0309-0.16978 0-0.32412 0.12039-0.42598 0.30868h-9e-3l-0.0216-0.27164h-0.2099z"/>
     </g>
    </g>
    <g fill="#1d232d" stroke-linecap="round" stroke-width=".22049">
     <rect x="218.11" y="98.904" width="29.876" height="12.237" stroke="#009244"/>
     <path d="m110.18 128.78v62.618l3.4451 3.0868h138.77v-62.618l-3.4451-3.0868z" stroke="#e9e56f"/>
     <path d="m110.18 124.37v4.4097h42.774v-1.3229l-3.4451-3.0868z" stroke="#e9e56f"/>
    </g>
    <g stroke-linecap="round" stroke-width=".22049">
     <g fill="#47d58a" aria-label="PIXI-ECS">
      <path d="m112.44 127.79h0.45685v-0.68218h0.27781c0.42598 0 0.78714-0.20991 0.78714-0.68219 0-0.48772-0.34881-0.64823-0.78714-0.64823h-0.73466zm0.45685-1.0433v-0.6081h0.25003c0.24077 0 0.37042 0.0772 0.37042 0.28707 0 0.2099-0.12039 0.32103-0.37042 0.32103z"/>
      <path d="m114.31 127.79h0.45685v-2.0126h-0.45685z"/>
      <path d="m115.04 127.79h0.48463l0.18829-0.41054c0.0463-0.10496 0.0895-0.20682 0.13891-0.33029h0.0123c0.0525 0.12347 0.0988 0.22533 0.15125 0.33029l0.19756 0.41054h0.50624l-0.55563-1.0125 0.52167-1.0001h-0.48463l-0.16051 0.37968c-0.0401 0.0926-0.0803 0.19755-0.12656 0.32411h-0.0123c-0.0587-0.12656-0.10186-0.23151-0.14817-0.32411l-0.17286-0.37968h-0.50932l0.52476 0.97852z"/>
      <path d="m116.99 127.79h0.45685v-2.0126h-0.45685z"/>
      <path d="m117.81 127.17h0.75936v-0.32103h-0.75936z"/>
      <path d="m118.94 127.79h1.2934v-0.38276h-0.83653v-0.46302h0.68527v-0.37968h-0.68527v-0.40437h0.80566v-0.38277h-1.2625z"/>
      <path d="m120.53 126.79c0 0.67601 0.42598 1.031 0.94765 1.031 0.25003 0 0.47228-0.10186 0.63897-0.29633l-0.25003-0.27473c-0.0988 0.10804-0.21608 0.17904-0.38276 0.17904-0.29325 0-0.48772-0.24077-0.48772-0.65441 0-0.40437 0.21916-0.64823 0.50006-0.64823 0.142 0 0.23769 0.0587 0.33955 0.15126l0.25003-0.2809c-0.13582-0.13891-0.34572-0.26238-0.59575-0.26238-0.51858 0-0.96 0.38894-0.96 1.0557z"/>
      <path d="m122.2 127.53c0.20682 0.19138 0.48463 0.29016 0.74701 0.29016 0.47846 0 0.75627-0.29016 0.75627-0.62353 0-0.28399-0.15434-0.44759-0.3982-0.54637l-0.2562-0.10495c-0.17595-0.071-0.30869-0.11421-0.30869-0.23768 0-0.11422 0.10187-0.18213 0.25621-0.18213 0.16051 0 0.28707 0.0587 0.41981 0.16052l0.22842-0.28708c-0.17286-0.17286-0.41672-0.26546-0.64823-0.26546-0.41672 0-0.71614 0.26546-0.71614 0.59884 0 0.29325 0.19756 0.46611 0.40746 0.54945l0.25929 0.11113c0.17595 0.0741 0.29016 0.11421 0.29016 0.24077 0 0.12038-0.0926 0.19447-0.2809 0.19447-0.16669 0-0.3519-0.0864-0.49389-0.20991z"/>
     </g>
     <rect x="132.78" y="134.18" width="29.876" height="12.237" fill="#1d232d" stroke="#e9e56f"/>
     <g fill="#47d58a" aria-label="Engine">
      <path d="m143.73 141.43h1.1977v-0.21916h-0.93839v-0.73466h0.76553v-0.21917h-0.76553v-0.63588h0.90752v-0.21608h-1.1668z"/>
      <path d="m145.32 141.43h0.25312v-1.0866c0.15126-0.15125 0.25621-0.23151 0.41055-0.23151 0.19755 0 0.28398 0.12039 0.28398 0.40129v0.91678h0.25312v-0.95074c0-0.38276-0.14199-0.58649-0.45685-0.58649-0.20681 0-0.36115 0.11112-0.50315 0.25312h-9e-3l-0.0216-0.21608h-0.20991z"/>
      <path d="m147.12 141.69c0-0.0864 0.0463-0.17595 0.15434-0.25312 0.0648 0.0185 0.13582 0.0247 0.19447 0.0247h0.25929c0.19447 0 0.30251 0.0463 0.30251 0.18521 0 0.15743-0.1883 0.3056-0.47537 0.3056-0.27164 0-0.43524-0.10187-0.43524-0.26238zm-0.22225 0.034c0 0.2593 0.25312 0.40438 0.62045 0.40438 0.46611 0 0.75935-0.24078 0.75935-0.51859 0-0.25003-0.17594-0.35807-0.52475-0.35807h-0.29016c-0.20373 0-0.26547-0.0679-0.26547-0.1636 0-0.0833 0.0432-0.13273 0.0957-0.17903 0.0679 0.034 0.15126 0.0525 0.22534 0.0525 0.30559 0 0.54945-0.20064 0.54945-0.52167 0-0.12656-0.0525-0.24077-0.12347-0.30868h0.30868v-0.19447h-0.52167c-0.0556-0.0216-0.12965-0.037-0.21299-0.037-0.30559 0-0.56489 0.20681-0.56489 0.53402 0 0.17903 0.0957 0.32411 0.19447 0.40437v0.0123c-0.0772 0.0525-0.1636 0.15125-0.1636 0.27781 0 0.1173 0.0587 0.19755 0.13273 0.24386v0.0123c-0.13582 0.0926-0.21916 0.21299-0.21916 0.33955zm0.62045-0.93221c-0.17286 0-0.31794-0.13891-0.31794-0.35807 0-0.21917 0.14199-0.34881 0.31794-0.34881s0.31794 0.12964 0.31794 0.34881c0 0.21916-0.14508 0.35807-0.31794 0.35807z"/>
      <path d="m148.69 139.63c0.0988 0 0.17595-0.0679 0.17595-0.1636 0-0.0988-0.0772-0.1636-0.17595-0.1636-0.0988 0-0.17595 0.0648-0.17595 0.1636 0 0.0957 0.0772 0.1636 0.17595 0.1636zm-0.12964 1.8089h0.25311v-1.5002h-0.25311z"/>
      <path d="m149.32 141.43h0.25312v-1.0866c0.15125-0.15125 0.2562-0.23151 0.41054-0.23151 0.19756 0 0.28399 0.12039 0.28399 0.40129v0.91678h0.25312v-0.95074c0-0.38276-0.14199-0.58649-0.45685-0.58649-0.20681 0-0.36116 0.11112-0.50315 0.25312h-9e-3l-0.0216-0.21608h-0.2099z"/>
      <path d="m150.9 140.69c0 0.4908 0.31795 0.78405 0.71923 0.78405 0.20373 0 0.36424-0.071 0.49389-0.15434l-0.0895-0.16669c-0.11112 0.071-0.23151 0.1173-0.3735 0.1173-0.28707 0-0.48154-0.20373-0.50006-0.52784h1.0125c6e-3 -0.037 9e-3 -0.0864 9e-3 -0.13891 0-0.42907-0.21608-0.70379-0.59884-0.70379-0.34264 0-0.67293 0.29942-0.67293 0.79022zm0.24695-0.11421c0.0309-0.30251 0.22225-0.47537 0.43215-0.47537 0.2346 0 0.37042 0.16978 0.37042 0.47537z"/>
     </g>
     <rect x="175.78" y="156.23" width="29.876" height="12.237" fill="#1d232d" stroke="#e9e56f"/>
     <g fill="#47d58a" aria-label="GameObject">
      <path d="m183 162.47c0 0.66058 0.37968 1.0495 0.91061 1.0495 0.27164 0 0.49698-0.10496 0.62971-0.2346v-0.85196h-0.66366v0.21299h0.42906v0.52784c-0.0803 0.0741-0.22225 0.12039-0.36733 0.12039-0.43215 0-0.67292-0.32103-0.67292-0.83035 0-0.50315 0.26238-0.81801 0.67292-0.81801 0.20065 0 0.32721 0.0803 0.42907 0.1883l0.14817-0.1636c-0.12039-0.12348-0.3056-0.25003-0.58032-0.25003-0.54328 0-0.93531 0.39819-0.93531 1.0495z"/>
      <path d="m184.92 163.09c0 0.26855 0.18829 0.42598 0.44141 0.42598 0.18521 0 0.3519-0.0988 0.49698-0.21608h6e-3l0.0216 0.17903h0.2099v-0.91986c0-0.37351-0.15434-0.61737-0.52167-0.61737-0.24077 0-0.45067 0.10495-0.58958 0.19447l0.10187 0.17595c0.1173-0.0803 0.27164-0.16051 0.44758-0.16051 0.24386 0 0.30869 0.1852 0.30869 0.37659-0.63897 0.071-0.92296 0.23459-0.92296 0.5618zm0.25003-0.0185c0-0.19139 0.16977-0.31486 0.67293-0.3766v0.41672c-0.14509 0.12965-0.26547 0.20065-0.41055 0.20065-0.14817 0-0.26238-0.071-0.26238-0.24077z"/>
      <path d="m186.57 163.48h0.25312v-1.0866c0.13891-0.15434 0.26546-0.23151 0.37659-0.23151 0.19138 0 0.2809 0.12038 0.2809 0.40128v0.91678h0.25312v-1.0866c0.1389-0.15434 0.25929-0.23151 0.37659-0.23151 0.18829 0 0.27781 0.12038 0.27781 0.40128v0.91678h0.25312v-0.95073c0-0.38277-0.14817-0.5865-0.45685-0.5865-0.18212 0-0.33646 0.1173-0.49389 0.28708-0.0617-0.17904-0.18521-0.28708-0.41363-0.28708-0.17903 0-0.33646 0.11113-0.46611 0.25312h-9e-3l-0.0216-0.21608h-0.2099z"/>
      <path d="m189.01 162.74c0 0.4908 0.31794 0.78405 0.71923 0.78405 0.20373 0 0.36424-0.071 0.49389-0.15434l-0.0895-0.16669c-0.11113 0.071-0.23151 0.1173-0.3735 0.1173-0.28708 0-0.48155-0.20373-0.50007-0.52785h1.0125c6e-3 -0.037 9e-3 -0.0864 9e-3 -0.1389 0-0.42907-0.21608-0.7038-0.59884-0.7038-0.34264 0-0.67293 0.29942-0.67293 0.79023zm0.24695-0.11422c0.0309-0.3025 0.22225-0.47536 0.43215-0.47536 0.2346 0 0.37042 0.16977 0.37042 0.47536z"/>
      <path d="m191.42 163.52c0.50624 0 0.86431-0.40746 0.86431-1.0588 0-0.64514-0.35807-1.0402-0.86431-1.0402-0.50932 0-0.86739 0.39202-0.86739 1.0402 0 0.65132 0.35807 1.0588 0.86739 1.0588zm0-0.22534c-0.36424 0-0.60193-0.3272-0.60193-0.83344 0-0.50315 0.23769-0.81492 0.60193-0.81492 0.36116 0 0.59884 0.31177 0.59884 0.81492 0 0.50624-0.23768 0.83344-0.59884 0.83344z"/>
      <path d="m192.69 163.48h0.20373l0.0216-0.14816h9e-3c0.13273 0.1173 0.29016 0.18521 0.42907 0.18521 0.34263 0 0.64823-0.29942 0.64823-0.81183 0-0.46303-0.20682-0.76245-0.59576-0.76245-0.16669 0-0.33337 0.0895-0.46919 0.20991l6e-3 -0.27164v-0.59884h-0.25312zm0.25312-0.33337v-0.78714c0.14199-0.13273 0.27473-0.20373 0.40128-0.20373 0.28399 0 0.39512 0.22225 0.39512 0.55254 0 0.37042-0.18213 0.59576-0.42907 0.59576-0.0988 0-0.2346-0.0432-0.36733-0.15743z"/>
      <path d="m194.4 163.65c0 0.18212-0.037 0.29325-0.18521 0.29325-0.0525 0-0.10495-0.0124-0.14199-0.0247l-0.0525 0.19138c0.0525 0.0216 0.12965 0.0401 0.22226 0.0401 0.29942 0 0.41054-0.19447 0.41054-0.50006v-1.67h-0.25312zm0.12965-1.9786c0.0957 0 0.17286-0.0679 0.17286-0.1636 0-0.0988-0.0772-0.1636-0.17286-0.1636-0.0988 0-0.17595 0.0648-0.17595 0.1636 0 0.0957 0.0772 0.1636 0.17595 0.1636z"/>
      <path d="m195.05 162.74c0 0.4908 0.31794 0.78405 0.71922 0.78405 0.20373 0 0.36425-0.071 0.49389-0.15434l-0.0895-0.16669c-0.11112 0.071-0.23151 0.1173-0.3735 0.1173-0.28707 0-0.48154-0.20373-0.50006-0.52785h1.0125c6e-3 -0.037 9e-3 -0.0864 9e-3 -0.1389 0-0.42907-0.21608-0.7038-0.59884-0.7038-0.34264 0-0.67292 0.29942-0.67292 0.79023zm0.24694-0.11422c0.0309-0.3025 0.22225-0.47536 0.43215-0.47536 0.2346 0 0.37042 0.16977 0.37042 0.47536z"/>
      <path d="m196.58 162.74c0 0.49697 0.3056 0.78405 0.7038 0.78405 0.17903 0 0.35189-0.0741 0.48771-0.19447l-0.11421-0.16669c-0.0895 0.0803-0.2099 0.15125-0.3519 0.15125-0.27472 0-0.46302-0.23151-0.46302-0.57414 0-0.34573 0.19756-0.58032 0.4692-0.58032 0.12038 0 0.21299 0.0556 0.3025 0.13273l0.12656-0.1636c-0.10186-0.0957-0.24077-0.17904-0.43832-0.17904-0.38586 0-0.72232 0.28708-0.72232 0.79023z"/>
      <path d="m198.14 163.02c0 0.29634 0.10804 0.50007 0.42907 0.50007 0.0926 0 0.19447-0.0278 0.27781-0.0556l-0.0494-0.19138c-0.0494 0.0185-0.1173 0.0401-0.16977 0.0401-0.17286 0-0.23151-0.10495-0.23151-0.29016v-0.83344h0.40437v-0.20682h-0.40437v-0.4198h-0.21299l-0.0309 0.4198-0.2346 0.0154v0.19138h0.22225z"/>
     </g>
     <rect x="132.78" y="156.45" width="29.876" height="12.237" fill="#1d232d" stroke="#ff867f"/>
     <g fill="#47d58a" aria-label="Scene">
      <path d="m144.13 163.44c0.17594 0.18212 0.42289 0.29942 0.70687 0.29942 0.42598 0 0.69145-0.25621 0.69145-0.57724 0-0.29942-0.18212-0.43832-0.41672-0.54019l-0.29016-0.12347c-0.15743-0.0679-0.33646-0.142-0.33646-0.33646 0-0.18213 0.15125-0.29634 0.37968-0.29634 0.1852 0 0.33646 0.0741 0.45993 0.19138l0.13582-0.16668c-0.14199-0.14817-0.35498-0.25004-0.59575-0.25004-0.36733 0-0.63897 0.22843-0.63897 0.53711 0 0.29633 0.22225 0.44141 0.41054 0.52167l0.29016 0.12656c0.19138 0.0864 0.33955 0.15125 0.33955 0.35807 0 0.19756-0.15743 0.33029-0.42289 0.33029-0.21299 0-0.41363-0.10187-0.55871-0.25312z"/>
      <path d="m145.79 162.96c0 0.49697 0.30559 0.78405 0.70379 0.78405 0.17903 0 0.35189-0.0741 0.48771-0.19447l-0.11421-0.16669c-0.0895 0.0803-0.2099 0.15125-0.35189 0.15125-0.27473 0-0.46303-0.23151-0.46303-0.57414 0-0.34573 0.19756-0.58032 0.4692-0.58032 0.12038 0 0.21299 0.0556 0.30251 0.13273l0.12656-0.1636c-0.10187-0.0957-0.24078-0.17904-0.43833-0.17904-0.38585 0-0.72231 0.28708-0.72231 0.79023z"/>
      <path d="m147.13 162.96c0 0.4908 0.31794 0.78405 0.71922 0.78405 0.20373 0 0.36425-0.071 0.49389-0.15434l-0.0895-0.16669c-0.11113 0.071-0.23152 0.1173-0.37351 0.1173-0.28707 0-0.48154-0.20373-0.50006-0.52785h1.0125c6e-3 -0.037 9e-3 -0.0864 9e-3 -0.1389 0-0.42907-0.21607-0.7038-0.59884-0.7038-0.34263 0-0.67292 0.29942-0.67292 0.79023zm0.24694-0.11422c0.0309-0.3025 0.22225-0.47536 0.43215-0.47536 0.2346 0 0.37042 0.16977 0.37042 0.47536z"/>
      <path d="m148.77 163.7h0.25312v-1.0866c0.15125-0.15126 0.2562-0.23151 0.41054-0.23151 0.19756 0 0.28399 0.12038 0.28399 0.40128v0.91678h0.25312v-0.95073c0-0.38277-0.14199-0.5865-0.45685-0.5865-0.20682 0-0.36116 0.11113-0.50315 0.25312h-9e-3l-0.0216-0.21608h-0.2099z"/>
      <path d="m150.35 162.96c0 0.4908 0.31794 0.78405 0.71923 0.78405 0.20373 0 0.36424-0.071 0.49389-0.15434l-0.0895-0.16669c-0.11112 0.071-0.23151 0.1173-0.3735 0.1173-0.28708 0-0.48154-0.20373-0.50007-0.52785h1.0125c6e-3 -0.037 9e-3 -0.0864 9e-3 -0.1389 0-0.42907-0.21608-0.7038-0.59884-0.7038-0.34264 0-0.67293 0.29942-0.67293 0.79023zm0.24695-0.11422c0.0309-0.3025 0.22225-0.47536 0.43215-0.47536 0.2346 0 0.37042 0.16977 0.37042 0.47536z"/>
     </g>
     <rect x="132.78" y="178.5" width="29.876" height="12.237" fill="#1d232d" stroke="#ff867f"/>
     <g fill="#47d58a" aria-label="Component">
      <path d="m140.36 184.74c0 0.66058 0.37968 1.0495 0.889 1.0495 0.25621 0 0.45685-0.10804 0.61428-0.29325l-0.14508-0.15742c-0.12965 0.14508-0.27164 0.22533-0.46302 0.22533-0.38585 0-0.62971-0.32103-0.62971-0.83035 0-0.50315 0.2562-0.818 0.64206-0.818 0.16668 0 0.29633 0.0741 0.40437 0.18829l0.14508-0.1636c-0.12039-0.13273-0.31177-0.25003-0.55254-0.25003-0.51859 0-0.90444 0.3982-0.90444 1.0495z"/>
      <path d="m142.1 185c0 0.49698 0.3272 0.78405 0.69453 0.78405s0.69454-0.28707 0.69454-0.78405c0-0.50315-0.32721-0.79022-0.69454-0.79022s-0.69453 0.28707-0.69453 0.79022zm0.26238 0c0-0.34572 0.17595-0.58032 0.43215-0.58032 0.2593 0 0.43216 0.2346 0.43216 0.58032 0 0.34264-0.17286 0.57415-0.43216 0.57415-0.2562 0-0.43215-0.23151-0.43215-0.57415z"/>
      <path d="m143.89 185.75h0.25312v-1.0866c0.1389-0.15434 0.26546-0.23151 0.37659-0.23151 0.19138 0 0.2809 0.12039 0.2809 0.40129v0.91678h0.25312v-1.0866c0.1389-0.15434 0.25929-0.23151 0.37659-0.23151 0.18829 0 0.27781 0.12039 0.27781 0.40129v0.91678h0.25312v-0.95074c0-0.38276-0.14817-0.58649-0.45685-0.58649-0.18212 0-0.33646 0.1173-0.49389 0.28707-0.0617-0.17903-0.18521-0.28707-0.41363-0.28707-0.17904 0-0.33646 0.11112-0.46611 0.25312h-9e-3l-0.0216-0.21608h-0.2099z"/>
      <path d="m146.69 185.62c0.1389 0.10804 0.27781 0.17286 0.41672 0.17286 0.34263 0 0.64823-0.29942 0.64823-0.80874 0-0.46611-0.20682-0.76553-0.59267-0.76553-0.17595 0-0.34264 0.0957-0.47846 0.2099h-9e-3l-0.0216-0.17286h-0.21017v2.133h0.25312v-0.50623zm6e-3 -0.19756v-0.78713c0.14817-0.13274 0.27473-0.20373 0.40129-0.20373 0.28398 0 0.39511 0.22225 0.39511 0.55254 0 0.37041-0.18212 0.59575-0.42907 0.59575-0.0988 0-0.23151-0.0432-0.36733-0.15743z"/>
      <path d="m148.05 185c0 0.49698 0.3272 0.78405 0.69453 0.78405 0.36734 0 0.69454-0.28707 0.69454-0.78405 0-0.50315-0.3272-0.79022-0.69454-0.79022-0.36733 0-0.69453 0.28707-0.69453 0.79022zm0.26238 0c0-0.34572 0.17595-0.58032 0.43215-0.58032 0.2593 0 0.43216 0.2346 0.43216 0.58032 0 0.34264-0.17286 0.57415-0.43216 0.57415-0.2562 0-0.43215-0.23151-0.43215-0.57415z"/>
      <path d="m149.84 185.75h0.25312v-1.0866c0.15125-0.15125 0.2562-0.23151 0.41054-0.23151 0.19756 0 0.28399 0.12039 0.28399 0.40129v0.91678h0.25312v-0.95074c0-0.38276-0.142-0.58649-0.45685-0.58649-0.20682 0-0.36116 0.11112-0.50315 0.25312h-9e-3l-0.0216-0.21608h-0.2099z"/>
      <path d="m151.41 185c0 0.4908 0.31794 0.78405 0.71923 0.78405 0.20373 0 0.36424-0.071 0.49389-0.15434l-0.0895-0.16669c-0.11112 0.071-0.23151 0.1173-0.3735 0.1173-0.28707 0-0.48154-0.20373-0.50006-0.52784h1.0125c6e-3 -0.037 9e-3 -0.0864 9e-3 -0.13891 0-0.42907-0.21608-0.70379-0.59884-0.70379-0.34264 0-0.67293 0.29942-0.67293 0.79022zm0.24695-0.11421c0.0309-0.30251 0.22225-0.47537 0.43215-0.47537 0.2346 0 0.37042 0.16977 0.37042 0.47537z"/>
      <path d="m153.05 185.75h0.25311v-1.0866c0.15126-0.15125 0.25621-0.23151 0.41055-0.23151 0.19756 0 0.28399 0.12039 0.28399 0.40129v0.91678h0.25312v-0.95074c0-0.38276-0.142-0.58649-0.45685-0.58649-0.20682 0-0.36116 0.11112-0.50315 0.25312h-9e-3l-0.0216-0.21608h-0.2099z"/>
      <path d="m154.79 185.29c0 0.29633 0.10804 0.50006 0.42907 0.50006 0.0926 0 0.19447-0.0278 0.27781-0.0556l-0.0494-0.19138c-0.0494 0.0185-0.1173 0.0401-0.16977 0.0401-0.17287 0-0.23151-0.10495-0.23151-0.29016v-0.83343h0.40437v-0.20682h-0.40437v-0.41981h-0.21299l-0.0309 0.41981-0.2346 0.0154v0.19139h0.22225z"/>
     </g>
    </g>
    <path d="m137.74 134.29v-22.049" fill="none" stroke="#47d58a" stroke-dasharray="0.881944, 0.881944" stroke-linecap="square" stroke-width=".22049"/>
    <path d="m157.59 134.29v-22.049" fill="none" stroke="#47d58a" stroke-dasharray="0.881944, 0.881944" stroke-linecap="square" stroke-width=".22049"/>
    <g transform="matrix(0 -.0035304 -.0035909 0 138.73 113.22)" fill="#47d58a" stroke-width="123.85">
     <g fill="#47d58a" stroke-width="123.85">
      <path d="m486.41 221.41-364.07-208.5c-52.938-30.318-95.852-5.44-95.852 55.563v415.65c0 61.004 42.914 85.882 95.852 55.563l364.07-208.49c52.938-30.317 52.938-79.473 0-109.79z" fill="#47d58a" stroke-width="123.85"/>
     </g>
    </g>
    <g transform="matrix(0 -.0035304 -.0035909 0 158.58 113.22)" fill="#47d58a" stroke-width="123.85">
     <g fill="#47d58a" stroke-width="123.85">
      <path d="m486.41 221.41-364.07-208.5c-52.938-30.318-95.852-5.44-95.852 55.563v415.65c0 61.004 42.914 85.882 95.852 55.563l364.07-208.49c52.938-30.317 52.938-79.473 0-109.79z" fill="#47d58a" stroke-width="123.85"/>
     </g>
    </g>
    <path d="m147.68 146.71v9.6187" fill="none" stroke="#47d58a" stroke-linecap="round" stroke-width=".22049"/>
    <g>
     <rect transform="matrix(-.70711 .70711 .70711 .70711 0 0)" x="-.77071" y="208.07" width="1.7639" height="1.7639" fill="#1d232d" stroke="#47d58a" stroke-linecap="round" stroke-width=".22049"/>
     <circle transform="matrix(0,1,1,0,0,0)" cx="147.84" cy="147.68" r=".44097" fill="#47d58a"/>
     <g stroke-linecap="round" stroke-width=".22049">
      <rect x="218.33" y="156.23" width="29.876" height="12.237" fill="#1d232d" stroke="#ff867f"/>
      <rect x="175.78" y="178.5" width="29.876" height="12.237" fill="#1d232d" stroke="#e9e56f"/>
      <g fill="#47d58a" aria-label="GameObjectProxy">
       <path d="m179.4 184.74c0 0.66058 0.37968 1.0495 0.91061 1.0495 0.27164 0 0.49698-0.10495 0.62971-0.2346v-0.85196h-0.66366v0.21299h0.42907v0.52785c-0.0803 0.0741-0.22225 0.12038-0.36733 0.12038-0.43216 0-0.67293-0.32103-0.67293-0.83035 0-0.50315 0.26238-0.818 0.67293-0.818 0.20064 0 0.3272 0.0803 0.42906 0.18829l0.14817-0.1636c-0.12039-0.12347-0.3056-0.25003-0.58032-0.25003-0.54328 0-0.93531 0.3982-0.93531 1.0495z"/>
       <path d="m181.32 185.36c0 0.26855 0.1883 0.42598 0.44141 0.42598 0.18521 0 0.3519-0.0988 0.49698-0.21608h6e-3l0.0216 0.17904h0.2099v-0.91987c0-0.3735-0.15434-0.61736-0.52167-0.61736-0.24077 0-0.45067 0.10495-0.58958 0.19447l0.10187 0.17594c0.1173-0.0802 0.27164-0.16051 0.44759-0.16051 0.24385 0 0.30868 0.18521 0.30868 0.37659-0.63897 0.071-0.92296 0.2346-0.92296 0.5618zm0.25003-0.0185c0-0.19138 0.16978-0.31486 0.67293-0.37659v0.41672c-0.14508 0.12964-0.26547 0.20064-0.41055 0.20064-0.14817 0-0.26238-0.071-0.26238-0.24077z"/>
       <path d="m182.97 185.75h0.25312v-1.0866c0.13891-0.15434 0.26547-0.23151 0.37659-0.23151 0.19138 0 0.2809 0.12039 0.2809 0.40129v0.91678h0.25312v-1.0866c0.13891-0.15434 0.25929-0.23151 0.37659-0.23151 0.1883 0 0.27781 0.12039 0.27781 0.40129v0.91678h0.25312v-0.95074c0-0.38276-0.14817-0.58649-0.45685-0.58649-0.18212 0-0.33646 0.1173-0.49389 0.28707-0.0617-0.17903-0.1852-0.28707-0.41363-0.28707-0.17903 0-0.33646 0.11112-0.46611 0.25312h-9e-3l-0.0216-0.21608h-0.20991z"/>
       <path d="m185.41 185c0 0.4908 0.31794 0.78405 0.71923 0.78405 0.20373 0 0.36424-0.071 0.49389-0.15434l-0.0895-0.16669c-0.11112 0.071-0.23151 0.1173-0.3735 0.1173-0.28708 0-0.48155-0.20373-0.50007-0.52784h1.0125c6e-3 -0.037 9e-3 -0.0864 9e-3 -0.13891 0-0.42907-0.21608-0.70379-0.59884-0.70379-0.34264 0-0.67293 0.29942-0.67293 0.79022zm0.24695-0.11421c0.0309-0.30251 0.22225-0.47537 0.43215-0.47537 0.2346 0 0.37042 0.16977 0.37042 0.47537z"/>
       <path d="m187.82 185.79c0.50624 0 0.86431-0.40746 0.86431-1.0588 0-0.64514-0.35807-1.0402-0.86431-1.0402-0.50932 0-0.86739 0.39202-0.86739 1.0402 0 0.65132 0.35807 1.0588 0.86739 1.0588zm0-0.22534c-0.36424 0-0.60193-0.3272-0.60193-0.83344 0-0.50315 0.23769-0.81491 0.60193-0.81491 0.36116 0 0.59884 0.31176 0.59884 0.81491 0 0.50624-0.23768 0.83344-0.59884 0.83344z"/>
       <path d="m189.09 185.75h0.20373l0.0216-0.14817h9e-3c0.13273 0.1173 0.29016 0.18521 0.42907 0.18521 0.34263 0 0.64823-0.29942 0.64823-0.81183 0-0.46302-0.20682-0.76244-0.59576-0.76244-0.16669 0-0.33337 0.0895-0.46919 0.2099l6e-3 -0.27164v-0.59884h-0.25312zm0.25312-0.33338v-0.78713c0.14199-0.13274 0.27473-0.20373 0.40129-0.20373 0.28398 0 0.39511 0.22225 0.39511 0.55254 0 0.37041-0.18212 0.59575-0.42907 0.59575-0.0988 0-0.2346-0.0432-0.36733-0.15743z"/>
       <path d="m190.8 185.92c0 0.18212-0.037 0.29325-0.1852 0.29325-0.0525 0-0.10496-0.0123-0.142-0.0247l-0.0525 0.19138c0.0525 0.0216 0.12964 0.0401 0.22225 0.0401 0.29942 0 0.41054-0.19447 0.41054-0.50007v-1.67h-0.25312zm0.12965-1.9786c0.0957 0 0.17286-0.0679 0.17286-0.1636 0-0.0988-0.0772-0.1636-0.17286-0.1636-0.0988 0-0.17595 0.0648-0.17595 0.1636 0 0.0957 0.0772 0.1636 0.17595 0.1636z"/>
       <path d="m191.45 185c0 0.4908 0.31794 0.78405 0.71922 0.78405 0.20373 0 0.36425-0.071 0.49389-0.15434l-0.0895-0.16669c-0.11113 0.071-0.23152 0.1173-0.37351 0.1173-0.28707 0-0.48154-0.20373-0.50006-0.52784h1.0125c6e-3 -0.037 9e-3 -0.0864 9e-3 -0.13891 0-0.42907-0.21607-0.70379-0.59884-0.70379-0.34264 0-0.67292 0.29942-0.67292 0.79022zm0.24694-0.11421c0.0309-0.30251 0.22225-0.47537 0.43215-0.47537 0.2346 0 0.37042 0.16977 0.37042 0.47537z"/>
       <path d="m192.98 185c0 0.49698 0.3056 0.78405 0.7038 0.78405 0.17903 0 0.35189-0.0741 0.48771-0.19447l-0.11421-0.16669c-0.0895 0.0803-0.2099 0.15126-0.3519 0.15126-0.27472 0-0.46302-0.23151-0.46302-0.57415 0-0.34572 0.19756-0.58032 0.4692-0.58032 0.12038 0 0.21299 0.0556 0.3025 0.13273l0.12656-0.1636c-0.10186-0.0957-0.24077-0.17903-0.43832-0.17903-0.38585 0-0.72232 0.28707-0.72232 0.79022z"/>
       <path d="m194.54 185.29c0 0.29633 0.10804 0.50006 0.42907 0.50006 0.0926 0 0.19447-0.0278 0.27781-0.0556l-0.0494-0.19138c-0.0494 0.0185-0.11729 0.0401-0.16977 0.0401-0.17286 0-0.23151-0.10495-0.23151-0.29016v-0.83343h0.40437v-0.20682h-0.40437v-0.41981h-0.21299l-0.0309 0.41981-0.2346 0.0154v0.19139h0.22225z"/>
       <path d="m195.56 185.75h0.25929v-0.80257h0.36424c0.44142 0 0.74701-0.20064 0.74701-0.62662 0-0.44451-0.29942-0.59576-0.74701-0.59576h-0.62353zm0.25929-1.0125v-0.80565h0.33029c0.34881 0 0.52476 0.0957 0.52476 0.38894 0 0.28707-0.16978 0.41671-0.52476 0.41671z"/>
       <path d="m197.3 185.75h0.25312v-0.96309c0.10186-0.25311 0.25312-0.34572 0.37968-0.34572 0.0617 0 0.0957 9e-3 0.14508 0.0247l0.0494-0.22225c-0.0494-0.0216-0.0957-0.0309-0.16051-0.0309-0.16977 0-0.32411 0.12038-0.42598 0.30868h-9e-3l-0.0216-0.27164h-0.2099z"/>
       <path d="m198.23 185c0 0.49698 0.3272 0.78405 0.69453 0.78405s0.69453-0.28707 0.69453-0.78405c0-0.50315-0.3272-0.79022-0.69453-0.79022s-0.69453 0.28707-0.69453 0.79022zm0.26238 0c0-0.34572 0.17594-0.58032 0.43215-0.58032 0.25929 0 0.43215 0.2346 0.43215 0.58032 0 0.34264-0.17286 0.57415-0.43215 0.57415-0.25621 0-0.43215-0.23151-0.43215-0.57415z"/>
       <path d="m199.76 185.75h0.26547l0.20373-0.34881c0.0494-0.0926 0.0988-0.18212 0.15125-0.26855h0.0123c0.0556 0.0864 0.11112 0.17903 0.1636 0.26855l0.21916 0.34881h0.27473l-0.48772-0.75627 0.45376-0.74392h-0.26546l-0.18212 0.33029c-0.0463 0.0802-0.0926 0.16669-0.13582 0.25003h-0.0123c-0.0525-0.0833-0.10187-0.16978-0.14817-0.25003l-0.20064-0.33029h-0.27473l0.45376 0.71614z"/>
       <path d="m201.2 186.17-0.0494 0.20064c0.0494 0.0185 0.10804 0.0309 0.17595 0.0309 0.30251 0 0.45685-0.22534 0.5618-0.52167l0.56489-1.6237h-0.24695l-0.26855 0.83035c-0.0401 0.13273-0.0833 0.28707-0.12656 0.42289h-0.0124c-0.0463-0.1389-0.0988-0.29324-0.14508-0.42289l-0.30559-0.83035h-0.26238l0.60193 1.5033-0.034 0.11112c-0.0617 0.18521-0.16977 0.32103-0.33955 0.32103-0.037 0-0.0833-0.0123-0.11421-0.0216z"/>
      </g>
     </g>
    </g>
    <path d="m233.65 156.12v-42.995" fill="none" stroke="#47d58a" stroke-linecap="square" stroke-width=".22049"/>
    <path d="m218.38 162.57h-11.024" fill="none" stroke="#47d58a" stroke-dasharray="0.881944, 0.881944" stroke-linecap="square" stroke-width=".22049"/>
    <g transform="matrix(-.0035304 0 0 .0035909 207.68 161.58)" fill="#47d58a" stroke-width="123.85">
     <g fill="#47d58a" stroke-width="123.85">
      <path d="m486.41 221.41-364.07-208.5c-52.938-30.318-95.852-5.44-95.852 55.563v415.65c0 61.004 42.914 85.882 95.852 55.563l364.07-208.49c52.938-30.317 52.938-79.473 0-109.79z" fill="#47d58a" stroke-width="123.85"/>
     </g>
    </g>
    <g>
     <g fill="#47d58a" stroke-linecap="round" stroke-width=".22049" aria-label="Container Sprite">
      <path d="m227.21 101.4c0 0.66057 0.37967 1.0495 0.889 1.0495 0.2562 0 0.45685-0.10804 0.61427-0.29324l-0.14508-0.15743c-0.12964 0.14508-0.27164 0.22534-0.46302 0.22534-0.38585 0-0.62971-0.32103-0.62971-0.83036 0-0.50315 0.25621-0.818 0.64206-0.818 0.16669 0 0.29633 0.0741 0.40437 0.18829l0.14508-0.1636c-0.12038-0.13273-0.31177-0.25003-0.55254-0.25003-0.51858 0-0.90443 0.3982-0.90443 1.0495z"/>
      <path d="m228.95 101.66c0 0.49698 0.3272 0.78405 0.69453 0.78405s0.69453-0.28707 0.69453-0.78405c0-0.50315-0.3272-0.79022-0.69453-0.79022s-0.69453 0.28707-0.69453 0.79022zm0.26237 0c0-0.34572 0.17595-0.58032 0.43216-0.58032 0.25929 0 0.43215 0.2346 0.43215 0.58032 0 0.34264-0.17286 0.57415-0.43215 0.57415-0.25621 0-0.43216-0.23151-0.43216-0.57415z"/>
      <path d="m230.73 102.41h0.25312v-1.0866c0.15125-0.15125 0.25621-0.23151 0.41055-0.23151 0.19755 0 0.28398 0.12039 0.28398 0.40129v0.91678h0.25312v-0.95074c0-0.38276-0.14199-0.58649-0.45685-0.58649-0.20681 0-0.36115 0.11112-0.50315 0.25312h-9e-3l-0.0216-0.21608h-0.2099z"/>
      <path d="m232.46 101.94c0 0.29633 0.10803 0.50006 0.42906 0.50006 0.0926 0 0.19447-0.0278 0.27782-0.0556l-0.0494-0.19138c-0.0494 0.0185-0.1173 0.0401-0.16978 0.0401-0.17286 0-0.23151-0.10496-0.23151-0.29016v-0.83344h0.40437v-0.20682h-0.40437v-0.41981h-0.21299l-0.0309 0.41981-0.23459 0.0154v0.19138h0.22225z"/>
      <path d="m233.34 102.02c0 0.26856 0.1883 0.42598 0.44142 0.42598 0.1852 0 0.35189-0.0988 0.49697-0.21607h6e-3l0.0216 0.17903h0.20991v-0.91987c0-0.3735-0.15434-0.61736-0.52167-0.61736-0.24078 0-0.45068 0.10495-0.58959 0.19447l0.10187 0.17595c0.1173-0.0803 0.27164-0.16052 0.44759-0.16052 0.24385 0 0.30868 0.18521 0.30868 0.37659-0.63897 0.071-0.92296 0.2346-0.92296 0.5618zm0.25003-0.0185c0-0.19138 0.16978-0.31485 0.67293-0.37659v0.41672c-0.14508 0.12965-0.26547 0.20064-0.41055 0.20064-0.14816 0-0.26238-0.071-0.26238-0.24077z"/>
      <path d="m235.12 100.6c0.0988 0 0.17595-0.0679 0.17595-0.1636 0-0.0988-0.0772-0.1636-0.17595-0.1636-0.0988 0-0.17595 0.0648-0.17595 0.1636 0 0.0957 0.0772 0.1636 0.17595 0.1636zm-0.12965 1.8089h0.25312v-1.5002h-0.25312z"/>
      <path d="m235.75 102.41h0.25312v-1.0866c0.15125-0.15125 0.2562-0.23151 0.41054-0.23151 0.19756 0 0.28399 0.12039 0.28399 0.40129v0.91678h0.25312v-0.95074c0-0.38276-0.142-0.58649-0.45685-0.58649-0.20682 0-0.36116 0.11112-0.50315 0.25312h-9e-3l-0.0216-0.21608h-0.2099z"/>
      <path d="m237.33 101.66c0 0.49081 0.31794 0.78405 0.71923 0.78405 0.20373 0 0.36424-0.071 0.49389-0.15434l-0.0895-0.16669c-0.11112 0.071-0.23151 0.1173-0.3735 0.1173-0.28708 0-0.48155-0.20373-0.50007-0.52784h1.0125c6e-3 -0.037 9e-3 -0.0864 9e-3 -0.13891 0-0.42906-0.21608-0.70379-0.59884-0.70379-0.34264 0-0.67293 0.29942-0.67293 0.79022zm0.24695-0.11421c0.0309-0.30251 0.22225-0.47537 0.43215-0.47537 0.2346 0 0.37042 0.16978 0.37042 0.47537z"/>
      <path d="m238.97 102.41h0.25312v-0.96308c0.10187-0.25312 0.25312-0.34573 0.37968-0.34573 0.0617 0 0.0957 9e-3 0.14508 0.0247l0.0494-0.22225c-0.0494-0.0216-0.0957-0.0309-0.16051-0.0309-0.16978 0-0.32412 0.12038-0.42598 0.30868h-9e-3l-0.0216-0.27164h-0.20991z"/>
      <path d="m229.68 106.03c0.17595 0.18212 0.4229 0.29942 0.70688 0.29942 0.42598 0 0.69145-0.25621 0.69145-0.57723 0-0.29942-0.18212-0.43833-0.41672-0.5402l-0.29016-0.12347c-0.15743-0.0679-0.33646-0.14199-0.33646-0.33646 0-0.18212 0.15125-0.29633 0.37968-0.29633 0.1852 0 0.33646 0.0741 0.45993 0.19138l0.13582-0.16669c-0.14199-0.14817-0.35498-0.25003-0.59575-0.25003-0.36733 0-0.63897 0.22842-0.63897 0.5371 0 0.29634 0.22225 0.44142 0.41054 0.52167l0.29016 0.12656c0.19138 0.0864 0.33955 0.15126 0.33955 0.35807 0 0.19756-0.15743 0.33029-0.42289 0.33029-0.21299 0-0.41363-0.10186-0.55871-0.25312z"/>
      <path d="m231.69 106.16c0.13891 0.10804 0.27782 0.17286 0.41672 0.17286 0.34264 0 0.64823-0.29942 0.64823-0.80874 0-0.46611-0.20681-0.76553-0.59266-0.76553-0.17595 0-0.34264 0.0957-0.47846 0.2099h-9e-3l-0.0216-0.17286h-0.2099v2.133h0.25312v-0.50623zm6e-3 -0.19756v-0.78713c0.14816-0.13274 0.27472-0.20373 0.40128-0.20373 0.28399 0 0.39511 0.22225 0.39511 0.55254 0 0.37041-0.18212 0.59575-0.42906 0.59575-0.0988 0-0.23151-0.0432-0.36733-0.15743z"/>
      <path d="m233.16 106.3h0.25312v-0.96309c0.10187-0.25312 0.25312-0.34572 0.37968-0.34572 0.0617 0 0.0957 9e-3 0.14508 0.0247l0.0494-0.22226c-0.0494-0.0216-0.0957-0.0309-0.16051-0.0309-0.16978 0-0.32412 0.12038-0.42598 0.30868h-9e-3l-0.0216-0.27164h-0.20991z"/>
      <path d="m234.36 104.49c0.0988 0 0.17595-0.0679 0.17595-0.1636 0-0.0988-0.0772-0.1636-0.17595-0.1636-0.0988 0-0.17595 0.0648-0.17595 0.1636 0 0.0957 0.0772 0.1636 0.17595 0.1636zm-0.12965 1.8089h0.25312v-1.5002h-0.25312z"/>
      <path d="m235.04 105.83c0 0.29633 0.10804 0.50006 0.42907 0.50006 0.0926 0 0.19447-0.0278 0.27781-0.0556l-0.0494-0.19138c-0.0494 0.0185-0.11729 0.0401-0.16977 0.0401-0.17286 0-0.23151-0.10495-0.23151-0.29016v-0.83344h0.40437v-0.20681h-0.40437v-0.41981h-0.21299l-0.0309 0.41981-0.2346 0.0154v0.19138h0.22225z"/>
      <path d="m235.89 105.55c0 0.4908 0.31794 0.78405 0.71923 0.78405 0.20373 0 0.36424-0.071 0.49389-0.15434l-0.0895-0.16669c-0.11112 0.071-0.23151 0.1173-0.3735 0.1173-0.28708 0-0.48154-0.20373-0.50007-0.52784h1.0125c6e-3 -0.0371 9e-3 -0.0864 9e-3 -0.13891 0-0.42907-0.21608-0.70379-0.59884-0.70379-0.34264 0-0.67293 0.29942-0.67293 0.79022zm0.24695-0.11421c0.0309-0.30251 0.22225-0.47537 0.43215-0.47537 0.2346 0 0.37042 0.16977 0.37042 0.47537z"/>
     </g>
     <g transform="matrix(0 -.0035304 -.0035909 0 234.64 113.22)" fill="none" stroke="#47d58a" stroke-width="123.85">
      <g fill="none" stroke="#47d58a" stroke-width="123.85">
       <path d="m486.41 221.41-364.07-208.5c-52.938-30.318-95.852-5.44-95.852 55.563v415.65c0 61.004 42.914 85.882 95.852 55.563l364.07-208.49c52.938-30.317 52.938-79.473 0-109.79z" fill="none" stroke="#47d58a" stroke-width="123.85"/>
      </g>
     </g>
     <path d="m190.66 168.47v8.158" fill="none" stroke="#47d58a" stroke-dasharray="0.881944, 0.881944" stroke-linecap="square" stroke-width=".22049"/>
    </g>
    <g>
     <g transform="matrix(0 .0035304 -.0035909 0 191.65 176.31)" fill="#47d58a" stroke-width="123.85">
      <g fill="#47d58a" stroke-width="123.85">
       <path d="m486.41 221.41-364.07-208.5c-52.938-30.318-95.852-5.44-95.852 55.563v415.65c0 61.004 42.914 85.882 95.852 55.563l364.07-208.49c52.938-30.317 52.938-79.473 0-109.79z" fill="#47d58a" stroke-width="123.85"/>
      </g>
     </g>
     <g fill="#e8eaec" stroke-linecap="round" stroke-width=".22049" aria-label="&lt;&lt;uses&gt;&gt;">
      <path d="m139.39 120.41-0.9181 0.46831 0.9234 0.52123v0.19844l-1.1271-0.65881v-0.127l1.1218-0.58738z"/>
      <path d="m140.72 120.41-0.9181 0.46831 0.92339 0.52123v0.19844l-1.1271-0.65881v-0.127l1.1218-0.58738z"/>
      <path d="m140.99 120.52v0.67469c0 0.10319 0 0.20902 0.0476 0.3175 0.0688 0.15875 0.21696 0.24606 0.37571 0.24606 0.15081 0 0.29369-0.082 0.37306-0.21431l-3e-3 0.09c0 0.0318 0 0.0635 5e-3 0.0926h0.20108c-0.0132-0.0344-0.0159-0.0741-0.0159-0.10848v-1.098h-0.19049v0.66411c0 0.0926-8e-3 0.16404-0.0476 0.23812-0.0556 0.10319-0.16404 0.17992-0.28046 0.17992-0.0926 0-0.18256-0.0529-0.23018-0.14817-0.0423-0.0847-0.0423-0.17992-0.0423-0.25929v-0.67469z"/>
      <path d="m143.29 120.68c-0.11113-0.12171-0.27252-0.18785-0.45244-0.18785-0.28046 0-0.46302 0.1561-0.46302 0.33602 0 0.21167 0.22754 0.28839 0.29369 0.31221 0.10319 0.037 0.23548 0.0688 0.32544 0.11112 0.10054 0.0476 0.11906 0.11113 0.11906 0.15346 0 0.11377-0.13759 0.1905-0.30956 0.1905-0.20638 0-0.33867-0.12435-0.37836-0.16669-8e-3 -0.0106-8e-3 -0.0185-8e-3 -0.0291 0-3e-3 3e-3 -0.0185-0.0106-0.0238l-0.11112 0.18785c0.14287 0.13229 0.32808 0.19315 0.51064 0.19315 0.33073 0 0.50271-0.1958 0.50271-0.37836 0-0.082-0.0344-0.19314-0.17727-0.27252-0.13494-0.0767-0.33073-0.10319-0.4445-0.15875-0.0979-0.0476-0.11906-0.10583-0.11906-0.14817 0-0.0952 0.11906-0.16404 0.254-0.16404 0.17462 0 0.29104 0.10584 0.33602 0.16669 8e-3 8e-3 5e-3 0.0159 5e-3 0.0238 0 0.0159 0.0106 0.0212 0.0159 0.0212z"/>
      <path d="m144.16 120.49c-0.2884 0-0.55563 0.20637-0.55563 0.64558 0 0.40481 0.25136 0.61913 0.57944 0.61913 0.17463 0 0.33073-0.0635 0.43392-0.18786l-0.10584-0.10319c-0.0767 0.09-0.19314 0.13759-0.3122 0.13759-0.1614 0-0.39688-0.09-0.41011-0.45244h0.85725c8e-3 -0.082 5e-3 -0.1614-8e-3 -0.23019-0.0556-0.32543-0.28045-0.42862-0.47889-0.42862zm-0.36513 0.51329c0.0397-0.28575 0.22225-0.36777 0.3519-0.36777 0.19579 0 0.33602 0.17198 0.31221 0.36777z"/>
      <path d="m145.94 120.68c-0.11113-0.12171-0.27252-0.18785-0.45244-0.18785-0.28046 0-0.46302 0.1561-0.46302 0.33602 0 0.21167 0.22754 0.28839 0.29369 0.31221 0.10319 0.037 0.23548 0.0688 0.32544 0.11112 0.10054 0.0476 0.11906 0.11113 0.11906 0.15346 0 0.11377-0.13759 0.1905-0.30956 0.1905-0.20638 0-0.33867-0.12435-0.37836-0.16669-8e-3 -0.0106-8e-3 -0.0185-8e-3 -0.0291 0-3e-3 3e-3 -0.0185-0.0106-0.0238l-0.11112 0.18785c0.14287 0.13229 0.32808 0.19315 0.51064 0.19315 0.33073 0 0.50271-0.1958 0.50271-0.37836 0-0.082-0.0344-0.19314-0.17727-0.27252-0.13494-0.0767-0.33073-0.10319-0.4445-0.15875-0.0979-0.0476-0.11906-0.10583-0.11906-0.14817 0-0.0952 0.11906-0.16404 0.254-0.16404 0.17462 0 0.29104 0.10584 0.33602 0.16669 8e-3 8e-3 5e-3 0.0159 5e-3 0.0238 0 0.0159 0.0106 0.0212 0.0159 0.0212z"/>
      <path d="m146.23 120.41 0.9181 0.46831-0.92604 0.52123v0.19844l1.1298-0.65881v-0.127l-1.1218-0.58738z"/>
      <path d="m147.55 120.41 0.91811 0.46831-0.92604 0.52123v0.19844l1.1298-0.65881v-0.127l-1.1218-0.58738z"/>
     </g>
     <g fill="#e8eaec" stroke-linecap="round" stroke-width=".22049" aria-label="&lt;&lt;uses&gt;&gt;">
      <path d="m159.24 120.41-0.9181 0.46831 0.9234 0.52123v0.19844l-1.1271-0.65881v-0.127l1.1218-0.58738z"/>
      <path d="m160.56 120.41-0.9181 0.46831 0.92339 0.52123v0.19844l-1.1271-0.65881v-0.127l1.1218-0.58738z"/>
      <path d="m160.84 120.52v0.67469c0 0.10319 0 0.20902 0.0476 0.3175 0.0688 0.15875 0.21696 0.24606 0.37571 0.24606 0.15081 0 0.29369-0.082 0.37306-0.21431l-3e-3 0.09c0 0.0318 0 0.0635 5e-3 0.0926h0.20108c-0.0132-0.0344-0.0159-0.0741-0.0159-0.10848v-1.098h-0.19049v0.66411c0 0.0926-8e-3 0.16404-0.0476 0.23812-0.0556 0.10319-0.16404 0.17992-0.28046 0.17992-0.0926 0-0.18256-0.0529-0.23018-0.14817-0.0423-0.0847-0.0423-0.17992-0.0423-0.25929v-0.67469z"/>
      <path d="m163.14 120.68c-0.11113-0.12171-0.27252-0.18785-0.45244-0.18785-0.28046 0-0.46302 0.1561-0.46302 0.33602 0 0.21167 0.22754 0.28839 0.29369 0.31221 0.10319 0.037 0.23548 0.0688 0.32544 0.11112 0.10054 0.0476 0.11906 0.11113 0.11906 0.15346 0 0.11377-0.13759 0.1905-0.30956 0.1905-0.20638 0-0.33867-0.12435-0.37836-0.16669-8e-3 -0.0106-8e-3 -0.0185-8e-3 -0.0291 0-3e-3 3e-3 -0.0185-0.0106-0.0238l-0.11112 0.18785c0.14287 0.13229 0.32808 0.19315 0.51064 0.19315 0.33073 0 0.50271-0.1958 0.50271-0.37836 0-0.082-0.0344-0.19314-0.17727-0.27252-0.13494-0.0767-0.33073-0.10319-0.4445-0.15875-0.0979-0.0476-0.11906-0.10583-0.11906-0.14817 0-0.0952 0.11906-0.16404 0.254-0.16404 0.17462 0 0.29104 0.10584 0.33602 0.16669 8e-3 8e-3 5e-3 0.0159 5e-3 0.0238 0 0.0159 0.0106 0.0212 0.0159 0.0212z"/>
      <path d="m164 120.49c-0.2884 0-0.55563 0.20637-0.55563 0.64558 0 0.40481 0.25136 0.61913 0.57944 0.61913 0.17463 0 0.33073-0.0635 0.43392-0.18786l-0.10584-0.10319c-0.0767 0.09-0.19314 0.13759-0.3122 0.13759-0.1614 0-0.39688-0.09-0.41011-0.45244h0.85725c8e-3 -0.082 5e-3 -0.1614-8e-3 -0.23019-0.0556-0.32543-0.28045-0.42862-0.47889-0.42862zm-0.36513 0.51329c0.0397-0.28575 0.22225-0.36777 0.3519-0.36777 0.19579 0 0.33602 0.17198 0.31221 0.36777z"/>
      <path d="m165.78 120.68c-0.11113-0.12171-0.27252-0.18785-0.45244-0.18785-0.28046 0-0.46302 0.1561-0.46302 0.33602 0 0.21167 0.22754 0.28839 0.29369 0.31221 0.10319 0.037 0.23548 0.0688 0.32544 0.11112 0.10054 0.0476 0.11906 0.11113 0.11906 0.15346 0 0.11377-0.13759 0.1905-0.30956 0.1905-0.20638 0-0.33867-0.12435-0.37836-0.16669-8e-3 -0.0106-8e-3 -0.0185-8e-3 -0.0291 0-3e-3 3e-3 -0.0185-0.0106-0.0238l-0.11112 0.18785c0.14287 0.13229 0.32808 0.19315 0.51064 0.19315 0.33073 0 0.50271-0.1958 0.50271-0.37836 0-0.082-0.0344-0.19314-0.17727-0.27252-0.13494-0.0767-0.33073-0.10319-0.4445-0.15875-0.0979-0.0476-0.11906-0.10583-0.11906-0.14817 0-0.0952 0.11906-0.16404 0.254-0.16404 0.17462 0 0.29104 0.10584 0.33602 0.16669 8e-3 8e-3 5e-3 0.0159 5e-3 0.0238 0 0.0159 0.0106 0.0212 0.0159 0.0212z"/>
      <path d="m166.08 120.41 0.9181 0.46831-0.92604 0.52123v0.19844l1.1298-0.65881v-0.127l-1.1218-0.58738z"/>
      <path d="m167.4 120.41 0.91811 0.46831-0.92604 0.52123v0.19844l1.1298-0.65881v-0.127l-1.1218-0.58738z"/>
     </g>
    </g>
    <path d="m147.68 168.76v9.6187" fill="none" stroke="#47d58a" stroke-linecap="round" stroke-width=".22049"/>
    <g>
     <rect transform="matrix(-.70711 .70711 .70711 .70711 0 0)" x="14.976" y="223.82" width="1.7639" height="1.7639" fill="#1d232d" stroke="#47d58a" stroke-linecap="round" stroke-width=".22049"/>
     <circle transform="matrix(0,1,1,0,0,0)" cx="170.11" cy="147.68" r=".44097" fill="#47d58a"/>
     <g fill="#e8eaec" stroke-linecap="round" stroke-width=".22049" aria-label="&lt;&lt;uses&gt;&gt;">
      <path d="m192.97 172.45-0.9181 0.46831 0.92339 0.52123v0.19844l-1.1271-0.65881v-0.127l1.1218-0.58738z"/>
      <path d="m194.3 172.45-0.9181 0.46831 0.9234 0.52123v0.19844l-1.1271-0.65881v-0.127l1.1218-0.58738z"/>
      <path d="m194.57 172.55v0.67469c0 0.10319 0 0.20902 0.0476 0.3175 0.0688 0.15875 0.21695 0.24606 0.3757 0.24606 0.15082 0 0.29369-0.082 0.37307-0.21431l-3e-3 0.09c0 0.0318 0 0.0635 5e-3 0.0926h0.20108c-0.0132-0.0344-0.0159-0.0741-0.0159-0.10848v-1.098h-0.1905v0.66411c0 0.0926-8e-3 0.16404-0.0476 0.23812-0.0556 0.10319-0.16405 0.17992-0.28046 0.17992-0.0926 0-0.18257-0.0529-0.23019-0.14817-0.0423-0.0847-0.0423-0.17991-0.0423-0.25929v-0.67469z"/>
      <path d="m196.87 172.71c-0.11112-0.1217-0.27252-0.18785-0.45243-0.18785-0.28046 0-0.46302 0.1561-0.46302 0.33602 0 0.21167 0.22754 0.2884 0.29368 0.31221 0.10319 0.037 0.23548 0.0688 0.32544 0.11112 0.10054 0.0476 0.11906 0.11113 0.11906 0.15346 0 0.11377-0.13758 0.1905-0.30956 0.1905-0.20637 0-0.33867-0.12435-0.37835-0.16669-8e-3 -0.0106-8e-3 -0.0185-8e-3 -0.0291 0-3e-3 3e-3 -0.0185-0.0106-0.0238l-0.11113 0.18785c0.14288 0.13229 0.32808 0.19315 0.51065 0.19315 0.33072 0 0.5027-0.19579 0.5027-0.37836 0-0.082-0.0344-0.19314-0.17727-0.27252-0.13493-0.0767-0.33073-0.10318-0.4445-0.15875-0.0979-0.0476-0.11906-0.10583-0.11906-0.14816 0-0.0953 0.11906-0.16405 0.254-0.16405 0.17463 0 0.29104 0.10584 0.33602 0.16669 8e-3 8e-3 5e-3 0.0159 5e-3 0.0238 0 0.0159 0.0106 0.0212 0.0159 0.0212z"/>
      <path d="m197.74 172.52c-0.28839 0-0.55562 0.20637-0.55562 0.64558 0 0.40481 0.25135 0.61913 0.57944 0.61913 0.17462 0 0.33072-0.0635 0.43391-0.18786l-0.10583-0.10318c-0.0767 0.09-0.19315 0.13758-0.31221 0.13758-0.16139 0-0.39687-0.09-0.4101-0.45244h0.85725c8e-3 -0.082 5e-3 -0.16139-8e-3 -0.23019-0.0556-0.32543-0.28046-0.42862-0.4789-0.42862zm-0.36512 0.51329c0.0397-0.28575 0.22225-0.36777 0.35189-0.36777 0.1958 0 0.33603 0.17198 0.31221 0.36777z"/>
      <path d="m199.52 172.71c-0.11112-0.1217-0.27252-0.18785-0.45243-0.18785-0.28046 0-0.46302 0.1561-0.46302 0.33602 0 0.21167 0.22754 0.2884 0.29368 0.31221 0.10319 0.037 0.23548 0.0688 0.32544 0.11112 0.10054 0.0476 0.11906 0.11113 0.11906 0.15346 0 0.11377-0.13758 0.1905-0.30956 0.1905-0.20637 0-0.33867-0.12435-0.37835-0.16669-8e-3 -0.0106-8e-3 -0.0185-8e-3 -0.0291 0-3e-3 3e-3 -0.0185-0.0106-0.0238l-0.11113 0.18785c0.14288 0.13229 0.32808 0.19315 0.51065 0.19315 0.33073 0 0.5027-0.19579 0.5027-0.37836 0-0.082-0.0344-0.19314-0.17727-0.27252-0.13493-0.0767-0.33073-0.10318-0.4445-0.15875-0.0979-0.0476-0.11906-0.10583-0.11906-0.14816 0-0.0953 0.11906-0.16405 0.254-0.16405 0.17463 0 0.29104 0.10584 0.33602 0.16669 8e-3 8e-3 5e-3 0.0159 5e-3 0.0238 0 0.0159 0.0106 0.0212 0.0159 0.0212z"/>
      <path d="m199.81 172.45 0.91811 0.46831-0.92604 0.52123v0.19844l1.1298-0.65881v-0.127l-1.1218-0.58738z"/>
      <path d="m201.13 172.45 0.9181 0.46831-0.92604 0.52123v0.19844l1.1298-0.65881v-0.127l-1.1218-0.58738z"/>
     </g>
    </g>
    <g stroke-linecap="round" stroke-width=".22049">
     <path d="m175.58 184.78h-12.706" fill="none" stroke="#47d58a"/>
     <rect transform="matrix(-.70711 -.70711 -.70711 .70711 0 0)" x="-254.84" y="6.4789" width="1.7639" height="1.7639" fill="#47d58a" stroke="#47d58a"/>
     <g fill="#e8eaec" aria-label="interface">
      <path d="m185.21 158.22v0.1561h0.29104v0.90223h-0.30692v0.15081h0.78317v-0.15081h-0.28311v-1.0583zm0.39158-0.52387c-0.0767 0-0.13758 0.0608-0.13758 0.13493 0 0.0741 0.0609 0.13494 0.13758 0.13494 0.0767 0 0.13758-0.0609 0.13758-0.13494 0-0.0741-0.0608-0.13493-0.13758-0.13493z"/>
      <path d="m186.43 159.43h0.19314v-0.69585c0-0.0794 0.0106-0.14023 0.0609-0.20637 0.045-0.0609 0.16139-0.16934 0.28839-0.16934 0.0609 0 0.12171 0.0265 0.16405 0.0767 0.0661 0.0794 0.0661 0.18256 0.0661 0.26723v0.7276h0.18786v-0.73289c0-0.0926 0-0.19315-0.0423-0.29104-0.0608-0.13494-0.18521-0.21167-0.32279-0.21167-0.16404 0-0.31221 0.10583-0.40217 0.24077v-0.21166h-0.19314z"/>
      <path d="m188.07 157.9-0.0238 0.32544h-0.28839l-3e-3 0.1561h0.2831c-0.0159 0.20637-0.0238 0.41275-0.0238 0.61648 0 0.10848 0 0.23018 0.0714 0.33073 0.0582 0.0794 0.15081 0.127 0.27517 0.127 0.14287 0 0.2831-0.0609 0.38629-0.13494l-0.0582-0.15081c-0.10319 0.0767-0.19844 0.11112-0.27252 0.11112-0.09 0-0.18256-0.0503-0.20373-0.19579 0-0.0106-8e-3 -0.0556-8e-3 -0.23283 0-0.15611 8e-3 -0.31486 0.0238-0.47096h0.39688v-0.15875h-0.39423s0.0185-0.21696 0.0317-0.28575c3e-3 -0.0265 0.0238-0.0423 0.0132-0.0714z"/>
      <path d="m189.58 158.19c-0.2884 0-0.55563 0.20638-0.55563 0.64558 0 0.40482 0.25136 0.61913 0.57944 0.61913 0.17462 0 0.33073-0.0635 0.43392-0.18786l-0.10584-0.10318c-0.0767 0.0899-0.19314 0.13758-0.31221 0.13758-0.16139 0-0.39687-0.09-0.4101-0.45244h0.85725c8e-3 -0.082 5e-3 -0.16139-8e-3 -0.23018-0.0556-0.32544-0.28046-0.42863-0.47889-0.42863zm-0.36513 0.51329c0.0397-0.28575 0.22225-0.36777 0.3519-0.36777 0.19579 0 0.33602 0.17198 0.31221 0.36777z"/>
      <path d="m190.48 158.22v1.2091h0.1905v-0.58737c0-0.0741 3e-3 -0.15346 0.0847-0.28311 0.11113-0.17462 0.254-0.20373 0.34131-0.20373 0.10054 0 0.16404 0.0476 0.19844 0.09 0.0159 0.0212 0.0238 0.0423 0.045 0.0609l0.09-0.18257c-0.0767-0.0794-0.18786-0.13229-0.32279-0.13229-0.17727 0-0.35719 0.09-0.43657 0.26194l8e-3 -0.23283z"/>
      <path d="m192.45 157.66c-0.16933 0-0.32808 0.0714-0.41275 0.20902-0.0635 0.10054-0.0661 0.20108-0.0661 0.30956v0.11906h-0.26459v0.15082h0.26459v0.98424h0.18256v-0.98424h0.39423v-0.15082h-0.39423v-0.0952c0-0.0873-3e-3 -0.17991 0.0423-0.25929 0.0503-0.09 0.14552-0.13494 0.24342-0.13494 0.11642 0 0.21431 0.0609 0.26458 0.13759 8e-3 0.0132 8e-3 0.0212 8e-3 0.0317 0 0.0185 0.0132 0.0238 0.0212 0.0238l0.0873-0.17727c-0.0873-0.10319-0.21961-0.16404-0.37042-0.16404z"/>
      <path d="m193.1 158.36 0.0926 0.12171c0.10054-0.10318 0.23547-0.13493 0.34925-0.13493 0.14287 0 0.21431 0.0609 0.2487 0.11641 0.0397 0.0661 0.037 0.14552 0.037 0.20902v0.0423h-0.037c-0.17991 0-0.37041 0-0.52387 0.0556-0.1905 0.0688-0.27517 0.21166-0.27517 0.34396 0 0.17727 0.15346 0.34395 0.40481 0.34395 0.14817 0 0.30163-0.0556 0.43392-0.16404v0.13229h0.17992v-0.74877c0-0.0979-3e-3 -0.1905-0.0582-0.28575-0.0794-0.12964-0.23283-0.19843-0.42069-0.19843-0.16139 0-0.3175 0.0503-0.43127 0.16668zm0.73554 0.50007v0.082c0 0.0608 0 0.14023-0.082 0.22754-0.045 0.045-0.15875 0.14287-0.3175 0.14287-0.16139 0-0.254-0.10318-0.254-0.20902 0-0.09 0.0609-0.18785 0.21167-0.22489 0.11112-0.0265 0.27252-0.0185 0.39952-0.0185z"/>
      <path d="m195.39 158.42c-0.0952-0.14023-0.25664-0.22489-0.45244-0.22489-0.35454 0-0.60589 0.26723-0.60589 0.6297 0 0.36513 0.25135 0.635 0.59531 0.635 0.16669 0 0.33073-0.0688 0.4445-0.19314l-0.10848-0.127c-0.082 0.0926-0.20108 0.14552-0.32014 0.14552-0.23548 0-0.4154-0.19579-0.4154-0.4789 0-0.27516 0.17727-0.44714 0.39952-0.44714 0.20638 0 0.30427 0.14287 0.31221 0.15875 0.0106 0.0185-5e-3 0.045 0.0159 0.0609z"/>
      <path d="m196.19 158.19c-0.28839 0-0.55562 0.20638-0.55562 0.64558 0 0.40482 0.25135 0.61913 0.57943 0.61913 0.17463 0 0.33073-0.0635 0.43392-0.18786l-0.10583-0.10318c-0.0767 0.0899-0.19315 0.13758-0.31221 0.13758-0.1614 0-0.39688-0.09-0.4101-0.45244h0.85724c8e-3 -0.082 5e-3 -0.16139-8e-3 -0.23018-0.0556-0.32544-0.28046-0.42863-0.4789-0.42863zm-0.36512 0.51329c0.0397-0.28575 0.22225-0.36777 0.35189-0.36777 0.19579 0 0.33602 0.17198 0.31221 0.36777z"/>
     </g>
    </g>
    <path d="m233.65 168.47v16.316h-27.12" fill="none" stroke="#47d58a" stroke-dasharray="0.881944, 0.881944" stroke-linecap="square" stroke-width=".22049"/>
    <g fill="#47d58a">
     <g transform="matrix(-.0035304 0 0 .0035909 207.68 183.63)" stroke-width="123.85">
      <g fill="#47d58a" stroke-width="123.85">
       <path d="m486.41 221.41-364.07-208.5c-52.938-30.318-95.852-5.44-95.852 55.563v415.65c0 61.004 42.914 85.882 95.852 55.563l364.07-208.49c52.938-30.317 52.938-79.473 0-109.79z" fill="#47d58a" stroke-width="123.85"/>
      </g>
     </g>
     <g stroke-linecap="round" stroke-width=".22049">
      <g transform="scale(.89242 1.1205)" aria-label="...">
       <path d="m258.81 96.94c0 0.33924 0.25444 0.58425 0.56541 0.58425 0.30155 0 0.55598-0.24501 0.55598-0.58425 0-0.35809-0.25443-0.6031-0.55598-0.6031-0.31097 0-0.56541 0.24501-0.56541 0.6031z"/>
       <path d="m261.14 96.94c0 0.33924 0.25444 0.58425 0.56541 0.58425 0.30155 0 0.55598-0.24501 0.55598-0.58425 0-0.35809-0.25443-0.6031-0.55598-0.6031-0.31097 0-0.56541 0.24501-0.56541 0.6031z"/>
       <path d="m263.48 96.94c0 0.33924 0.25444 0.58425 0.56541 0.58425 0.30155 0 0.55598-0.24501 0.55598-0.58425 0-0.35809-0.25443-0.6031-0.55598-0.6031-0.31097 0-0.56541 0.24501-0.56541 0.6031z"/>
      </g>
      <g aria-label="Container Sprite">
       <path d="m227.21 158.72c0 0.66058 0.37967 1.0495 0.889 1.0495 0.2562 0 0.45685-0.10804 0.61427-0.29325l-0.14508-0.15743c-0.12964 0.14508-0.27164 0.22534-0.46302 0.22534-0.38585 0-0.62971-0.32103-0.62971-0.83035 0-0.50315 0.25621-0.81801 0.64206-0.81801 0.16669 0 0.29633 0.0741 0.40437 0.1883l0.14508-0.1636c-0.12038-0.13274-0.31177-0.25004-0.55254-0.25004-0.51858 0-0.90443 0.3982-0.90443 1.0495z"/>
       <path d="m228.95 158.99c0 0.49697 0.3272 0.78405 0.69453 0.78405s0.69453-0.28708 0.69453-0.78405c0-0.50315-0.3272-0.79023-0.69453-0.79023s-0.69453 0.28708-0.69453 0.79023zm0.26237 0c0-0.34573 0.17595-0.58032 0.43216-0.58032 0.25929 0 0.43215 0.23459 0.43215 0.58032 0 0.34263-0.17286 0.57414-0.43215 0.57414-0.25621 0-0.43216-0.23151-0.43216-0.57414z"/>
       <path d="m230.73 159.73h0.25312v-1.0866c0.15125-0.15126 0.25621-0.23151 0.41055-0.23151 0.19755 0 0.28398 0.12038 0.28398 0.40128v0.91678h0.25312v-0.95073c0-0.38277-0.14199-0.5865-0.45685-0.5865-0.20681 0-0.36115 0.11113-0.50315 0.25312h-9e-3l-0.0216-0.21608h-0.2099z"/>
       <path d="m232.46 159.27c0 0.29634 0.10803 0.50007 0.42906 0.50007 0.0926 0 0.19447-0.0278 0.27782-0.0556l-0.0494-0.19138c-0.0494 0.0185-0.1173 0.0401-0.16978 0.0401-0.17286 0-0.23151-0.10495-0.23151-0.29016v-0.83344h0.40437v-0.20682h-0.40437v-0.4198h-0.21299l-0.0309 0.4198-0.23459 0.0154v0.19138h0.22225z"/>
       <path d="m233.34 159.35c0 0.26855 0.1883 0.42598 0.44142 0.42598 0.1852 0 0.35189-0.0988 0.49697-0.21608h6e-3l0.0216 0.17903h0.20991v-0.91987c0-0.3735-0.15434-0.61736-0.52167-0.61736-0.24078 0-0.45068 0.10495-0.58959 0.19447l0.10187 0.17595c0.1173-0.0803 0.27164-0.16051 0.44759-0.16051 0.24385 0 0.30868 0.1852 0.30868 0.37659-0.63897 0.071-0.92296 0.23459-0.92296 0.5618zm0.25003-0.0185c0-0.19139 0.16978-0.31486 0.67293-0.3766v0.41672c-0.14508 0.12965-0.26547 0.20065-0.41055 0.20065-0.14816 0-0.26238-0.071-0.26238-0.24077z"/>
       <path d="m235.12 157.93c0.0988 0 0.17595-0.0679 0.17595-0.1636 0-0.0988-0.0772-0.1636-0.17595-0.1636-0.0988 0-0.17595 0.0648-0.17595 0.1636 0 0.0957 0.0772 0.1636 0.17595 0.1636zm-0.12965 1.8089h0.25312v-1.5002h-0.25312z"/>
       <path d="m235.75 159.73h0.25312v-1.0866c0.15125-0.15126 0.2562-0.23151 0.41054-0.23151 0.19756 0 0.28399 0.12038 0.28399 0.40128v0.91678h0.25312v-0.95073c0-0.38277-0.142-0.5865-0.45685-0.5865-0.20682 0-0.36116 0.11113-0.50315 0.25312h-9e-3l-0.0216-0.21608h-0.2099z"/>
       <path d="m237.33 158.99c0 0.4908 0.31794 0.78405 0.71923 0.78405 0.20373 0 0.36424-0.071 0.49389-0.15434l-0.0895-0.16669c-0.11112 0.071-0.23151 0.1173-0.3735 0.1173-0.28708 0-0.48155-0.20373-0.50007-0.52785h1.0125c6e-3 -0.037 9e-3 -0.0864 9e-3 -0.1389 0-0.42907-0.21608-0.7038-0.59884-0.7038-0.34264 0-0.67293 0.29942-0.67293 0.79023zm0.24695-0.11422c0.0309-0.3025 0.22225-0.47536 0.43215-0.47536 0.2346 0 0.37042 0.16977 0.37042 0.47536z"/>
       <path d="m238.97 159.73h0.25312v-0.96308c0.10187-0.25312 0.25312-0.34572 0.37968-0.34572 0.0617 0 0.0957 9e-3 0.14508 0.0247l0.0494-0.22225c-0.0494-0.0216-0.0957-0.0309-0.16051-0.0309-0.16978 0-0.32412 0.12039-0.42598 0.30868h-9e-3l-0.0216-0.27164h-0.20991z"/>
       <path d="m229.68 163.36c0.17595 0.18212 0.4229 0.29942 0.70688 0.29942 0.42598 0 0.69145-0.2562 0.69145-0.57723 0-0.29942-0.18212-0.43833-0.41672-0.54019l-0.29016-0.12347c-0.15743-0.0679-0.33646-0.142-0.33646-0.33647 0-0.18212 0.15125-0.29633 0.37968-0.29633 0.1852 0 0.33646 0.0741 0.45993 0.19138l0.13582-0.16669c-0.14199-0.14816-0.35498-0.25003-0.59575-0.25003-0.36733 0-0.63897 0.22843-0.63897 0.53711 0 0.29633 0.22225 0.44141 0.41054 0.52167l0.29016 0.12656c0.19138 0.0864 0.33955 0.15125 0.33955 0.35807 0 0.19755-0.15743 0.33029-0.42289 0.33029-0.21299 0-0.41363-0.10187-0.55871-0.25312z"/>
       <path d="m231.69 163.49c0.13891 0.10804 0.27782 0.17286 0.41672 0.17286 0.34264 0 0.64823-0.29942 0.64823-0.80874 0-0.46611-0.20681-0.76553-0.59266-0.76553-0.17595 0-0.34264 0.0957-0.47846 0.2099h-9e-3l-0.0216-0.17286h-0.2099v2.133h0.25312v-0.50624zm6e-3 -0.19755v-0.78714c0.14816-0.13273 0.27472-0.20373 0.40128-0.20373 0.28399 0 0.39511 0.22225 0.39511 0.55254 0 0.37042-0.18212 0.59575-0.42906 0.59575-0.0988 0-0.23151-0.0432-0.36733-0.15742z"/>
       <path d="m233.16 163.62h0.25312v-0.96308c0.10187-0.25312 0.25312-0.34573 0.37968-0.34573 0.0617 0 0.0957 9e-3 0.14508 0.0247l0.0494-0.22225c-0.0494-0.0216-0.0957-0.0309-0.16051-0.0309-0.16978 0-0.32412 0.12039-0.42598 0.30868h-9e-3l-0.0216-0.27164h-0.20991z"/>
       <path d="m234.36 161.81c0.0988 0 0.17595-0.0679 0.17595-0.1636 0-0.0988-0.0772-0.1636-0.17595-0.1636-0.0988 0-0.17595 0.0648-0.17595 0.1636 0 0.0957 0.0772 0.1636 0.17595 0.1636zm-0.12965 1.8089h0.25312v-1.5002h-0.25312z"/>
       <path d="m235.04 163.16c0 0.29633 0.10804 0.50006 0.42907 0.50006 0.0926 0 0.19447-0.0278 0.27781-0.0556l-0.0494-0.19138c-0.0494 0.0185-0.11729 0.0401-0.16977 0.0401-0.17286 0-0.23151-0.10495-0.23151-0.29016v-0.83344h0.40437v-0.20682h-0.40437v-0.4198h-0.21299l-0.0309 0.4198-0.2346 0.0154v0.19138h0.22225z"/>
       <path d="m235.89 162.88c0 0.49081 0.31794 0.78405 0.71923 0.78405 0.20373 0 0.36424-0.071 0.49389-0.15434l-0.0895-0.16669c-0.11112 0.071-0.23151 0.1173-0.3735 0.1173-0.28708 0-0.48154-0.20373-0.50007-0.52784h1.0125c6e-3 -0.037 9e-3 -0.0864 9e-3 -0.13891 0-0.42906-0.21608-0.70379-0.59884-0.70379-0.34264 0-0.67293 0.29942-0.67293 0.79022zm0.24695-0.11421c0.0309-0.30251 0.22225-0.47537 0.43215-0.47537 0.2346 0 0.37042 0.16978 0.37042 0.47537z"/>
      </g>
      <g transform="scale(.89242 1.1205)" aria-label="...">
       <path d="m258.81 148.1c0 0.33924 0.25444 0.58425 0.56541 0.58425 0.30155 0 0.55598-0.24501 0.55598-0.58425 0-0.35809-0.25443-0.6031-0.55598-0.6031-0.31097 0-0.56541 0.24501-0.56541 0.6031z"/>
       <path d="m261.14 148.1c0 0.33924 0.25444 0.58425 0.56541 0.58425 0.30155 0 0.55598-0.24501 0.55598-0.58425 0-0.35809-0.25443-0.6031-0.55598-0.6031-0.31097 0-0.56541 0.24501-0.56541 0.6031z"/>
       <path d="m263.48 148.1c0 0.33924 0.25444 0.58425 0.56541 0.58425 0.30155 0 0.55598-0.24501 0.55598-0.58425 0-0.35809-0.25443-0.6031-0.55598-0.6031-0.31097 0-0.56541 0.24501-0.56541 0.6031z"/>
      </g>
     </g>
    </g>
    <g fill="#e8eaec" stroke-linecap="round" stroke-width=".22049">
     <g aria-label="&lt;&lt;extends&gt;&gt;">
      <path d="m236.41 120.41-0.9181 0.46831 0.92339 0.52123v0.19844l-1.1271-0.65881v-0.127l1.1218-0.58738z"/>
      <path d="m237.73 120.41-0.91811 0.46831 0.9234 0.52123v0.19844l-1.1271-0.65881v-0.127l1.1218-0.58738z"/>
      <path d="m238.53 120.49c-0.2884 0-0.55563 0.20637-0.55563 0.64558 0 0.40481 0.25136 0.61913 0.57944 0.61913 0.17462 0 0.33073-0.0635 0.43392-0.18786l-0.10584-0.10319c-0.0767 0.09-0.19314 0.13759-0.31221 0.13759-0.16139 0-0.39687-0.09-0.4101-0.45244h0.85725c8e-3 -0.082 5e-3 -0.1614-8e-3 -0.23019-0.0556-0.32543-0.28046-0.42862-0.47889-0.42862zm-0.36513 0.51329c0.0397-0.28575 0.22225-0.36777 0.3519-0.36777 0.19579 0 0.33602 0.17198 0.31221 0.36777z"/>
      <path d="m240.12 120.52-0.30163 0.44714-0.3175-0.44714h-0.20637l0.41539 0.59531-0.42333 0.61383h0.21431l0.31486-0.46831 0.33337 0.46831h0.21696l-0.4445-0.61912 0.39158-0.59002z"/>
      <path d="m240.99 120.19-0.0238 0.32543h-0.2884l-3e-3 0.15611h0.28311c-0.0159 0.20637-0.0238 0.41275-0.0238 0.61648 0 0.10847 0 0.23018 0.0714 0.33072 0.0582 0.0794 0.15082 0.127 0.27517 0.127 0.14287 0 0.2831-0.0609 0.38629-0.13493l-0.0582-0.15082c-0.10318 0.0767-0.19843 0.11113-0.27252 0.11113-0.09 0-0.18256-0.0503-0.20373-0.19579 0-0.0106-8e-3 -0.0556-8e-3 -0.23284 0-0.1561 8e-3 -0.31485 0.0238-0.47095h0.39687v-0.15875h-0.39423s0.0185-0.21696 0.0317-0.28575c3e-3 -0.0265 0.0238-0.0423 0.0132-0.0714z"/>
      <path d="m242.49 120.49c-0.28839 0-0.55562 0.20637-0.55562 0.64558 0 0.40481 0.25135 0.61913 0.57943 0.61913 0.17463 0 0.33073-0.0635 0.43392-0.18786l-0.10583-0.10319c-0.0767 0.09-0.19315 0.13759-0.31221 0.13759-0.1614 0-0.39688-0.09-0.4101-0.45244h0.85724c8e-3 -0.082 5e-3 -0.1614-8e-3 -0.23019-0.0556-0.32543-0.28046-0.42862-0.4789-0.42862zm-0.36512 0.51329c0.0397-0.28575 0.22225-0.36777 0.35189-0.36777 0.19579 0 0.33602 0.17198 0.31221 0.36777z"/>
      <path d="m243.31 121.72h0.19314v-0.69585c0-0.0794 0.0106-0.14023 0.0609-0.20638 0.045-0.0609 0.16139-0.16933 0.28839-0.16933 0.0609 0 0.12171 0.0265 0.16405 0.0767 0.0661 0.0794 0.0661 0.18256 0.0661 0.26723v0.7276h0.18786v-0.73289c0-0.0926 0-0.19315-0.0423-0.29104-0.0608-0.13494-0.18521-0.21167-0.32279-0.21167-0.16404 0-0.31221 0.10583-0.40217 0.24077v-0.21167h-0.19314z"/>
      <path d="m245.44 120.69c-0.0582-0.12436-0.18785-0.20638-0.35454-0.20638-0.23019 0-0.51065 0.16404-0.51065 0.62442 0 0.44714 0.24871 0.64294 0.48155 0.64294 0.15345 0 0.29633-0.0873 0.37306-0.22225v0.10583c0 0.0291 3e-3 0.0582 0.0106 0.0873h0.1905c-0.0106-0.0344-0.0106-0.0741-0.0106-0.11112l-3e-3 -1.5716c0-0.0159 0-0.0212 0.0106-0.037 5e-3 -8e-3 0.0159-0.0212 0.0132-0.0397h-0.20108zm-0.3466-0.0503c0.10583 0 0.26193 0.0556 0.30956 0.23548 0.0159 0.0556 0.0212 0.1217 0.0212 0.25664 0 0.0926-5e-3 0.15875-0.0265 0.22225-0.045 0.14288-0.17198 0.22754-0.29634 0.22754-0.13758 0-0.34131-0.10583-0.34131-0.50271 0-0.3466 0.19315-0.4392 0.33338-0.4392z"/>
      <path d="m246.92 120.68c-0.11112-0.12171-0.27252-0.18785-0.45244-0.18785-0.28045 0-0.46302 0.1561-0.46302 0.33602 0 0.21167 0.22755 0.28839 0.29369 0.31221 0.10319 0.037 0.23548 0.0688 0.32544 0.11112 0.10054 0.0476 0.11906 0.11113 0.11906 0.15346 0 0.11377-0.13758 0.1905-0.30956 0.1905-0.20638 0-0.33867-0.12435-0.37836-0.16669-8e-3 -0.0106-8e-3 -0.0185-8e-3 -0.0291 0-3e-3 3e-3 -0.0185-0.0106-0.0238l-0.11112 0.18785c0.14287 0.13229 0.32808 0.19315 0.51064 0.19315 0.33073 0 0.50271-0.1958 0.50271-0.37836 0-0.082-0.0344-0.19314-0.17727-0.27252-0.13494-0.0767-0.33073-0.10319-0.4445-0.15875-0.0979-0.0476-0.11906-0.10583-0.11906-0.14817 0-0.0952 0.11906-0.16404 0.254-0.16404 0.17462 0 0.29104 0.10584 0.33602 0.16669 8e-3 8e-3 5e-3 0.0159 5e-3 0.0238 0 0.0159 0.0106 0.0212 0.0159 0.0212z"/>
      <path d="m247.21 120.41 0.91811 0.46831-0.92605 0.52123v0.19844l1.1298-0.65881v-0.127l-1.1218-0.58738z"/>
      <path d="m248.54 120.41 0.9181 0.46831-0.92604 0.52123v0.19844l1.1298-0.65881v-0.127l-1.1218-0.58738z"/>
     </g>
     <g aria-label="&lt;&lt;implements&gt;&gt;">
      <path d="m204 153.26-0.9181 0.46832 0.92339 0.52122v0.19844l-1.1271-0.65881v-0.127l1.1218-0.58737z"/>
      <path d="m205.32 153.26-0.91811 0.46832 0.9234 0.52122v0.19844l-1.1271-0.65881v-0.127l1.1218-0.58737z"/>
      <path d="m205.71 153.37v0.15611h0.29104v0.90222h-0.30691v0.15082h0.78316v-0.15082h-0.2831v-1.0583zm0.39158-0.52387c-0.0767 0-0.13758 0.0609-0.13758 0.13493 0 0.0741 0.0609 0.13494 0.13758 0.13494 0.0767 0 0.13759-0.0609 0.13759-0.13494 0-0.0741-0.0609-0.13493-0.13759-0.13493z"/>
      <path d="m206.85 154.58h0.17463v-0.80434c0-0.0582 5e-3 -0.11112 0.0397-0.17462 0.0423-0.0794 0.0952-0.11113 0.14553-0.11113 0.0423 0 0.0899 0.0265 0.11112 0.0926 0.0159 0.0503 0.0132 0.10848 0.0132 0.15875v0.83873h0.17727v-0.79904c0-0.0635 5e-3 -0.11378 0.0503-0.1905 0.0212-0.0317 0.0661-0.10848 0.14023-0.10848 0.0397 0 0.0767 0.0238 0.0952 0.0688 0.0238 0.0503 0.0185 0.11906 0.0185 0.17462v0.85725h0.17992v-0.85989c0-0.10054 3e-3 -0.20109-0.0503-0.28311-0.045-0.0688-0.12171-0.0953-0.18786-0.0953-0.11641 0-0.22489 0.0688-0.27252 0.17463-0.0185-0.10054-0.10319-0.17463-0.21166-0.17463-0.10055 0-0.19315 0.0635-0.24871 0.14817l3e-3 -0.11906h-0.17727z"/>
      <path d="m208.23 153.37 3e-3 1.6484h0.19315v-0.6006c0.082 0.11906 0.21696 0.19314 0.36248 0.19314 0.2487 0 0.508-0.20902 0.508-0.65087 0-0.42598-0.25136-0.61648-0.48948-0.61648-0.15611 0-0.30163 0.0794-0.38365 0.21167v-0.18521zm0.50535 0.13493c0.10583 0 0.36248 0.0556 0.36248 0.49477 0 0.381-0.24871 0.44186-0.36248 0.44186s-0.23019-0.0582-0.27781-0.16669c-0.0344-0.082-0.0344-0.18256-0.0344-0.35719 0-0.10054 5e-3 -0.17462 0.0317-0.23812 0.0476-0.10848 0.15875-0.17463 0.28046-0.17463z"/>
      <path d="m209.62 152.82v0.15346h0.34395v1.4526h-0.35983v0.15082h0.90752v-0.15082h-0.35719v-1.606z"/>
      <path d="m211.41 153.34c-0.2884 0-0.55563 0.20638-0.55563 0.64559 0 0.40481 0.25136 0.61912 0.57944 0.61912 0.17462 0 0.33073-0.0635 0.43391-0.18785l-0.10583-0.10319c-0.0767 0.09-0.19314 0.13758-0.31221 0.13758-0.16139 0-0.39687-0.09-0.4101-0.45244h0.85725c8e-3 -0.082 5e-3 -0.16139-8e-3 -0.23018-0.0556-0.32544-0.28046-0.42863-0.47889-0.42863zm-0.36513 0.51329c0.0397-0.28575 0.22225-0.36777 0.3519-0.36777 0.19579 0 0.33602 0.17198 0.3122 0.36777z"/>
      <path d="m212.14 154.58h0.17463v-0.80434c0-0.0582 5e-3 -0.11112 0.0397-0.17462 0.0423-0.0794 0.0952-0.11113 0.14553-0.11113 0.0423 0 0.09 0.0265 0.11112 0.0926 0.0159 0.0503 0.0132 0.10848 0.0132 0.15875v0.83873h0.17727v-0.79904c0-0.0635 5e-3 -0.11378 0.0503-0.1905 0.0212-0.0317 0.0661-0.10848 0.14023-0.10848 0.0397 0 0.0767 0.0238 0.0953 0.0688 0.0238 0.0503 0.0185 0.11906 0.0185 0.17462v0.85725h0.17992v-0.85989c0-0.10054 3e-3 -0.20109-0.0503-0.28311-0.045-0.0688-0.12171-0.0953-0.18786-0.0953-0.11641 0-0.22489 0.0688-0.27252 0.17463-0.0185-0.10054-0.10319-0.17463-0.21166-0.17463-0.10055 0-0.19315 0.0635-0.24871 0.14817l3e-3 -0.11906h-0.17727z"/>
      <path d="m214.05 153.34c-0.2884 0-0.55563 0.20638-0.55563 0.64559 0 0.40481 0.25136 0.61912 0.57944 0.61912 0.17462 0 0.33073-0.0635 0.43391-0.18785l-0.10583-0.10319c-0.0767 0.09-0.19314 0.13758-0.31221 0.13758-0.16139 0-0.39687-0.09-0.4101-0.45244h0.85725c8e-3 -0.082 5e-3 -0.16139-8e-3 -0.23018-0.0556-0.32544-0.28046-0.42863-0.47889-0.42863zm-0.36513 0.51329c0.0397-0.28575 0.22225-0.36777 0.3519-0.36777 0.19579 0 0.33602 0.17198 0.3122 0.36777z"/>
      <path d="m214.87 154.58h0.19315v-0.69586c0-0.0794 0.0106-0.14023 0.0609-0.20637 0.045-0.0609 0.1614-0.16934 0.2884-0.16934 0.0608 0 0.12171 0.0265 0.16404 0.0767 0.0661 0.0794 0.0661 0.18257 0.0661 0.26723v0.72761h0.18785v-0.7329c0-0.0926 0-0.19314-0.0423-0.29104-0.0609-0.13494-0.18521-0.21167-0.32279-0.21167-0.16405 0-0.31221 0.10584-0.40217 0.24077v-0.21166h-0.19315z"/>
      <path d="m216.51 153.05-0.0238 0.32544h-0.2884l-3e-3 0.1561h0.28311c-0.0159 0.20638-0.0238 0.41275-0.0238 0.61648 0 0.10848 0 0.23019 0.0714 0.33073 0.0582 0.0794 0.15082 0.127 0.27517 0.127 0.14287 0 0.2831-0.0609 0.38629-0.13494l-0.0582-0.15081c-0.10319 0.0767-0.19844 0.11112-0.27252 0.11112-0.09 0-0.18256-0.0503-0.20373-0.19579 0-0.0106-8e-3 -0.0556-8e-3 -0.23283 0-0.1561 8e-3 -0.31485 0.0238-0.47096h0.39687v-0.15875h-0.39423s0.0185-0.21696 0.0317-0.28575c3e-3 -0.0265 0.0238-0.0423 0.0132-0.0714z"/>
      <path d="m218.48 153.53c-0.11113-0.12171-0.27252-0.18786-0.45244-0.18786-0.28046 0-0.46302 0.15611-0.46302 0.33602 0 0.21167 0.22754 0.2884 0.29369 0.31221 0.10318 0.037 0.23547 0.0688 0.32543 0.11113 0.10054 0.0476 0.11906 0.11112 0.11906 0.15345 0 0.11378-0.13758 0.1905-0.30956 0.1905-0.20637 0-0.33866-0.12435-0.37835-0.16668-8e-3 -0.0106-8e-3 -0.0185-8e-3 -0.0291 0-3e-3 3e-3 -0.0185-0.0106-0.0238l-0.11113 0.18785c0.14288 0.1323 0.32809 0.19315 0.51065 0.19315 0.33073 0 0.50271-0.19579 0.50271-0.37835 0-0.082-0.0344-0.19315-0.17727-0.27252-0.13494-0.0767-0.33073-0.10319-0.4445-0.15875-0.0979-0.0476-0.11907-0.10584-0.11907-0.14817 0-0.0953 0.11907-0.16404 0.254-0.16404 0.17463 0 0.29104 0.10583 0.33602 0.16669 8e-3 8e-3 5e-3 0.0159 5e-3 0.0238 0 0.0159 0.0106 0.0212 0.0159 0.0212z"/>
      <path d="m218.77 153.26 0.9181 0.46832-0.92604 0.52122v0.19844l1.1298-0.65881v-0.127l-1.1218-0.58737z"/>
      <path d="m220.09 153.26 0.91811 0.46832-0.92605 0.52122v0.19844l1.1298-0.65881v-0.127l-1.1218-0.58737z"/>
     </g>
     <g aria-label="&lt;&lt;delegates&gt;&gt;">
      <path d="m212.38 182.37-0.9181 0.46831 0.92339 0.52123v0.19844l-1.1271-0.65881v-0.127l1.1218-0.58738z"/>
      <path d="m213.7 182.37-0.91811 0.46831 0.9234 0.52123v0.19844l-1.1271-0.65881v-0.127l1.1218-0.58738z"/>
      <path d="m214.79 182.65c-0.0582-0.12435-0.18785-0.20638-0.35454-0.20638-0.23019 0-0.51064 0.16405-0.51064 0.62442 0 0.44715 0.2487 0.64294 0.48154 0.64294 0.15346 0 0.29633-0.0873 0.37306-0.22225v0.10583c0 0.0291 3e-3 0.0582 0.0106 0.0873h0.1905c-0.0106-0.0344-0.0106-0.0741-0.0106-0.11112l-3e-3 -1.5716c0-0.0159 0-0.0212 0.0106-0.037 5e-3 -8e-3 0.0159-0.0212 0.0132-0.0397h-0.20109zm-0.3466-0.0503c0.10583 0 0.26194 0.0556 0.30956 0.23548 0.0159 0.0556 0.0212 0.12171 0.0212 0.25664 0 0.0926-5e-3 0.15875-0.0265 0.22225-0.045 0.14288-0.17198 0.22754-0.29633 0.22754-0.13759 0-0.34132-0.10583-0.34132-0.5027 0-0.34661 0.19315-0.43921 0.33338-0.43921z"/>
      <path d="m215.82 182.45c-0.2884 0-0.55563 0.20638-0.55563 0.64558 0 0.40481 0.25136 0.61913 0.57944 0.61913 0.17463 0 0.33073-0.0635 0.43392-0.18786l-0.10584-0.10318c-0.0767 0.0899-0.19314 0.13758-0.3122 0.13758-0.1614 0-0.39688-0.09-0.41011-0.45244h0.85725c8e-3 -0.082 5e-3 -0.16139-8e-3 -0.23019-0.0556-0.32543-0.28045-0.42862-0.47889-0.42862zm-0.36513 0.51329c0.0397-0.28575 0.22225-0.36777 0.3519-0.36777 0.19579 0 0.33602 0.17198 0.31221 0.36777z"/>
      <path d="m216.68 181.92v0.15346h0.34396v1.4526h-0.35984v0.15081h0.90752v-0.15081h-0.35718v-1.606z"/>
      <path d="m218.46 182.45c-0.2884 0-0.55563 0.20638-0.55563 0.64558 0 0.40481 0.25136 0.61913 0.57944 0.61913 0.17463 0 0.33073-0.0635 0.43392-0.18786l-0.10584-0.10318c-0.0767 0.0899-0.19314 0.13758-0.3122 0.13758-0.1614 0-0.39688-0.09-0.41011-0.45244h0.85725c8e-3 -0.082 5e-3 -0.16139-8e-3 -0.23019-0.0556-0.32543-0.28045-0.42862-0.47889-0.42862zm-0.36513 0.51329c0.0397-0.28575 0.22225-0.36777 0.3519-0.36777 0.19579 0 0.33602 0.17198 0.31221 0.36777z"/>
      <path d="m219.43 182.85c0-0.14552 0.12171-0.26458 0.26723-0.26458 0.14816 0 0.26723 0.11906 0.26723 0.26458s-0.11907 0.26459-0.26723 0.26459c-0.14817 0-0.26723-0.11907-0.26723-0.26459zm0.27781-0.41539c-0.24077 0-0.44979 0.1905-0.44979 0.42598 0 0.13229 0.0661 0.25664 0.17727 0.32808-0.0873 0.0741-0.13758 0.1561-0.13758 0.23283 0 0.0503 0.0212 0.12171 0.0979 0.1614-0.12964 0.082-0.19579 0.17198-0.19579 0.26723 0 0.13229 0.12171 0.28839 0.54504 0.28839 0.41011 0 0.55827-0.20902 0.55827-0.37041 0-0.10584-0.0608-0.21167-0.18785-0.26194-0.127-0.0529-0.27252-0.0344-0.41011-0.0344-0.0899 0-0.14816-8e-3 -0.17197-0.0159-0.0476-0.0132-0.0741-0.0423-0.0741-0.0794 0-0.0635 0.0741-0.12435 0.0873-0.13493 0.0476 0.0185 0.10055 0.0264 0.15346 0.0264 0.23813 0 0.43392-0.1905 0.43392-0.41275 0-0.0741-0.0212-0.14552-0.0608-0.20637 0.0635-0.037 0.13758-0.0582 0.21166-0.0582 0.0238 0 0.045 3e-3 0.0688 8e-3l-0.0212-0.15611c-0.12171-0.0106-0.24342 0.0291-0.33602 0.10584-0.0767-0.0741-0.17727-0.11377-0.2884-0.11377zm-0.18256 1.1827c0.045 5e-3 0.10848 0.0106 0.20108 0.0159 0.09 3e-3 0.18786-5e-3 0.25665 5e-3 0.11112 0.0185 0.14552 0.0873 0.14552 0.14023 0 0.0529-0.0318 0.11642-0.11377 0.16139-0.09 0.0476-0.1905 0.0529-0.27252 0.0529-0.0556 0-0.15875-3e-3 -0.24871-0.0397-0.0979-0.0397-0.11906-0.10583-0.11906-0.14816 0-0.0873 0.082-0.15082 0.15081-0.18786z"/>
      <path d="m220.66 182.61 0.0926 0.12171c0.10055-0.10319 0.23548-0.13494 0.34925-0.13494 0.14288 0 0.21432 0.0609 0.24871 0.11642 0.0397 0.0661 0.037 0.14552 0.037 0.20902v0.0423h-0.037c-0.17992 0-0.37042 0-0.52387 0.0556-0.1905 0.0688-0.27517 0.21166-0.27517 0.34395 0 0.17728 0.15346 0.34396 0.40481 0.34396 0.14817 0 0.30163-0.0556 0.43392-0.16404v0.13229h0.17991v-0.74877c0-0.0979-3e-3 -0.1905-0.0582-0.28575-0.0794-0.12964-0.23284-0.19843-0.42069-0.19843-0.1614 0-0.3175 0.0503-0.43127 0.16668zm0.73554 0.50007v0.082c0 0.0608 0 0.14022-0.082 0.22754-0.045 0.045-0.15875 0.14287-0.3175 0.14287-0.1614 0-0.254-0.10319-0.254-0.20902 0-0.09 0.0609-0.18785 0.21167-0.22489 0.11112-0.0265 0.27252-0.0185 0.39952-0.0185z"/>
      <path d="m222.24 182.15-0.0238 0.32543h-0.28839l-3e-3 0.15611h0.28311c-0.0159 0.20637-0.0238 0.41275-0.0238 0.61648 0 0.10848 0 0.23018 0.0714 0.33073 0.0582 0.0794 0.15081 0.127 0.27517 0.127 0.14287 0 0.2831-0.0609 0.38629-0.13494l-0.0582-0.15081c-0.10319 0.0767-0.19844 0.11112-0.27252 0.11112-0.09 0-0.18256-0.0503-0.20373-0.19579 0-0.0106-8e-3 -0.0556-8e-3 -0.23283 0-0.15611 8e-3 -0.31486 0.0238-0.47096h0.39687v-0.15875h-0.39381s0.0185-0.21696 0.0317-0.28575c3e-3 -0.0265 0.0238-0.0423 0.0132-0.0714z"/>
      <path d="m223.75 182.45c-0.2884 0-0.55563 0.20638-0.55563 0.64558 0 0.40481 0.25136 0.61913 0.57944 0.61913 0.17463 0 0.33073-0.0635 0.43392-0.18786l-0.10584-0.10318c-0.0767 0.0899-0.19314 0.13758-0.3122 0.13758-0.1614 0-0.39688-0.09-0.41011-0.45244h0.85725c8e-3 -0.082 5e-3 -0.16139-8e-3 -0.23019-0.0556-0.32543-0.28045-0.42862-0.47889-0.42862zm-0.36513 0.51329c0.0397-0.28575 0.22225-0.36777 0.3519-0.36777 0.19579 0 0.33602 0.17198 0.31221 0.36777z"/>
      <path d="m225.54 182.63c-0.11113-0.1217-0.27252-0.18785-0.45244-0.18785-0.28046 0-0.46302 0.1561-0.46302 0.33602 0 0.21167 0.22754 0.2884 0.29369 0.31221 0.10319 0.037 0.23548 0.0688 0.32544 0.11112 0.10054 0.0476 0.11906 0.11113 0.11906 0.15346 0 0.11377-0.13759 0.1905-0.30956 0.1905-0.20638 0-0.33867-0.12435-0.37836-0.16669-8e-3 -0.0106-8e-3 -0.0185-8e-3 -0.0291 0-3e-3 3e-3 -0.0185-0.0106-0.0238l-0.11112 0.18785c0.14287 0.13229 0.32808 0.19315 0.51064 0.19315 0.33073 0 0.50271-0.19579 0.50271-0.37836 0-0.082-0.0344-0.19314-0.17727-0.27252-0.13494-0.0767-0.33073-0.10318-0.4445-0.15875-0.0979-0.0476-0.11906-0.10583-0.11906-0.14816 0-0.0952 0.11906-0.16404 0.254-0.16404 0.17462 0 0.29104 0.10583 0.33602 0.16668 8e-3 8e-3 5e-3 0.0159 5e-3 0.0238 0 0.0159 0.0106 0.0212 0.0159 0.0212z"/>
      <path d="m225.83 182.37 0.9181 0.46831-0.92604 0.52123v0.19844l1.1298-0.65881v-0.127l-1.1218-0.58738z"/>
      <path d="m227.15 182.37 0.91811 0.46831-0.92604 0.52123v0.19844l1.1298-0.65881v-0.127l-1.1218-0.58738z"/>
     </g>
     <g stroke="#cf2f25" aria-label="*">
      <path d="m163.88 182.75 0.0397 0.46831-0.42598-0.20108-0.0688 0.17197 0.45773 0.13759-0.34661 0.39687 0.14552 0.11642 0.29634-0.43921 0.28575 0.43656 0.14287-0.11377-0.33337-0.39952 0.45508-0.13494-0.0714-0.16404-0.42068 0.19315 0.0423-0.39688c3e-3 -0.0344 0.0106-0.0397 0.0159-0.0714z" fill="#e8eaec" stroke="none"/>
     </g>
     <g stroke="#cf2f25" aria-label="*">
      <path d="m148.89 176.36 0.0397 0.46831-0.42598-0.20108-0.0688 0.17198 0.45773 0.13758-0.34661 0.39688 0.14552 0.11641 0.29634-0.4392 0.28575 0.43656 0.14287-0.11377-0.33337-0.39952 0.45508-0.13494-0.0714-0.16404-0.42069 0.19314 0.0423-0.39687c3e-3 -0.0344 0.0106-0.0397 0.0159-0.0714z" fill="#e8eaec" stroke="none"/>
     </g>
     <g stroke="#cf2f25" aria-label="1">
      <path d="m149.11 154.03h-0.12171l-0.42333 0.2196 0.0423 0.10319 0.32809-0.0926v1.2753h-0.30692v0.14552h0.77787v-0.14552h-0.29633z" fill="#e8eaec" stroke="none"/>
     </g>
     <g aria-label="subscribers">
      <path d="m150.8 173.17c-0.11112-0.12171-0.27252-0.18785-0.45244-0.18785-0.28045 0-0.46302 0.1561-0.46302 0.33602 0 0.21166 0.22755 0.28839 0.29369 0.3122 0.10319 0.0371 0.23548 0.0688 0.32544 0.11113 0.10054 0.0476 0.11906 0.11112 0.11906 0.15346 0 0.11377-0.13758 0.1905-0.30956 0.1905-0.20638 0-0.33867-0.12436-0.37835-0.16669-8e-3 -0.0106-8e-3 -0.0185-8e-3 -0.0291 0-3e-3 3e-3 -0.0185-0.0106-0.0238l-0.11112 0.18786c0.14287 0.13229 0.32808 0.19314 0.51064 0.19314 0.33073 0 0.50271-0.19579 0.50271-0.37835 0-0.082-0.0344-0.19315-0.17727-0.27252-0.13494-0.0767-0.33073-0.10319-0.4445-0.15875-0.0979-0.0476-0.11906-0.10583-0.11906-0.14817 0-0.0952 0.11906-0.16404 0.254-0.16404 0.17462 0 0.29104 0.10583 0.33602 0.16669 8e-3 8e-3 5e-3 0.0159 5e-3 0.0238 0 0.0159 0.0106 0.0212 0.0159 0.0212z"/>
      <path d="m151.15 173.01v0.67469c0 0.10318 0 0.20902 0.0476 0.3175 0.0688 0.15875 0.21696 0.24606 0.37571 0.24606 0.15081 0 0.29369-0.082 0.37306-0.21431l-3e-3 0.09c0 0.0317 0 0.0635 5e-3 0.0926h0.20108c-0.0132-0.0344-0.0159-0.0741-0.0159-0.10848v-1.098h-0.1905v0.6641c0 0.0926-8e-3 0.16404-0.0476 0.23813-0.0556 0.10319-0.16404 0.17991-0.28045 0.17991-0.0926 0-0.18257-0.0529-0.23019-0.14816-0.0423-0.0847-0.0423-0.17992-0.0423-0.25929v-0.67469z"/>
      <path d="m152.46 172.46v1.7595h0.12435l0.0662-0.15875c0.0794 0.11906 0.21166 0.1905 0.35718 0.1905 0.24871 0 0.50536-0.21167 0.50536-0.65088 0-0.42068-0.24871-0.61647-0.48684-0.61647-0.15345 0-0.29633 0.082-0.37306 0.21431v-0.67733c0-0.0159 3e-3 -0.0212 0.0159-0.0318 5e-3 -3e-3 0.0185-0.0132 0.0159-0.0291zm0.50006 0.68792c0.11377 0 0.35454 0.0661 0.35454 0.49477 0 0.36777-0.23812 0.43656-0.35719 0.43656-0.082 0-0.26458-0.0318-0.29633-0.26458-8e-3 -0.0609-8e-3 -0.1323-8e-3 -0.23813 0-0.10848 5e-3 -0.18785 0.0317-0.254 0.045-0.10848 0.15611-0.17462 0.27517-0.17462z"/>
      <path d="m154.77 173.17c-0.11113-0.12171-0.27252-0.18785-0.45244-0.18785-0.28046 0-0.46302 0.1561-0.46302 0.33602 0 0.21166 0.22754 0.28839 0.29369 0.3122 0.10318 0.0371 0.23548 0.0688 0.32543 0.11113 0.10055 0.0476 0.11907 0.11112 0.11907 0.15346 0 0.11377-0.13759 0.1905-0.30957 0.1905-0.20637 0-0.33866-0.12436-0.37835-0.16669-8e-3 -0.0106-8e-3 -0.0185-8e-3 -0.0291 0-3e-3 3e-3 -0.0185-0.0106-0.0238l-0.11113 0.18786c0.14288 0.13229 0.32809 0.19314 0.51065 0.19314 0.33073 0 0.50271-0.19579 0.50271-0.37835 0-0.082-0.0344-0.19315-0.17727-0.27252-0.13494-0.0767-0.33073-0.10319-0.4445-0.15875-0.0979-0.0476-0.11907-0.10583-0.11907-0.14817 0-0.0952 0.11907-0.16404 0.254-0.16404 0.17463 0 0.29105 0.10583 0.33603 0.16669 8e-3 8e-3 5e-3 0.0159 5e-3 0.0238 0 0.0159 0.0106 0.0212 0.0159 0.0212z"/>
      <path d="m156.16 173.21c-0.0953-0.14023-0.25664-0.2249-0.45244-0.2249-0.35454 0-0.60589 0.26723-0.60589 0.62971 0 0.36512 0.25135 0.635 0.59531 0.635 0.16669 0 0.33073-0.0688 0.4445-0.19315l-0.10848-0.127c-0.082 0.0926-0.20108 0.14552-0.32014 0.14552-0.23548 0-0.4154-0.19579-0.4154-0.47889 0-0.27517 0.17727-0.44715 0.39952-0.44715 0.20638 0 0.30427 0.14288 0.31221 0.15875 0.0106 0.0185-5e-3 0.045 0.0159 0.0609z"/>
      <path d="m156.54 173.01v1.2091h0.1905v-0.58737c0-0.0741 3e-3 -0.15346 0.0847-0.2831 0.11113-0.17463 0.254-0.20373 0.34131-0.20373 0.10055 0 0.16405 0.0476 0.19844 0.09 0.0159 0.0212 0.0238 0.0423 0.045 0.0608l0.09-0.18256c-0.0767-0.0794-0.18786-0.13229-0.32279-0.13229-0.17727 0-0.35719 0.0899-0.43656 0.26193l8e-3 -0.23283z"/>
      <path d="m157.88 173.01v0.15611h0.29104v0.90223h-0.30691v0.15081h0.78316v-0.15081h-0.2831v-1.0583zm0.39158-0.52387c-0.0767 0-0.13758 0.0608-0.13758 0.13494 0 0.0741 0.0609 0.13493 0.13758 0.13493 0.0767 0 0.13759-0.0608 0.13759-0.13493 0-0.0741-0.0609-0.13494-0.13759-0.13494z"/>
      <path d="m159.08 172.46v1.7595h0.12436l0.0661-0.15875c0.0794 0.11906 0.21167 0.1905 0.35719 0.1905 0.24871 0 0.50535-0.21167 0.50535-0.65088 0-0.42068-0.24871-0.61647-0.48683-0.61647-0.15346 0-0.29633 0.082-0.37306 0.21431v-0.67733c0-0.0159 3e-3 -0.0212 0.0159-0.0318 5e-3 -3e-3 0.0185-0.0132 0.0159-0.0291zm0.50006 0.68792c0.11377 0 0.35454 0.0661 0.35454 0.49477 0 0.36777-0.23812 0.43656-0.35718 0.43656-0.082 0-0.26459-0.0318-0.29634-0.26458-8e-3 -0.0609-8e-3 -0.1323-8e-3 -0.23813 0-0.10848 5e-3 -0.18785 0.0318-0.254 0.045-0.10848 0.1561-0.17462 0.27516-0.17462z"/>
      <path d="m160.92 172.99c-0.2884 0-0.55563 0.20637-0.55563 0.64558 0 0.40481 0.25136 0.61912 0.57944 0.61912 0.17462 0 0.33073-0.0635 0.43392-0.18785l-0.10584-0.10319c-0.0767 0.09-0.19314 0.13758-0.31221 0.13758-0.16139 0-0.39687-0.0899-0.4101-0.45243h0.85725c8e-3 -0.082 5e-3 -0.1614-8e-3 -0.23019-0.0556-0.32544-0.28046-0.42862-0.47889-0.42862zm-0.36513 0.51329c0.0397-0.28575 0.22225-0.36777 0.3519-0.36777 0.19579 0 0.33602 0.17198 0.31221 0.36777z"/>
      <path d="m161.83 173.01v1.2091h0.19049v-0.58737c0-0.0741 3e-3 -0.15346 0.0847-0.2831 0.11113-0.17463 0.254-0.20373 0.34131-0.20373 0.10055 0 0.16404 0.0476 0.19844 0.09 0.0159 0.0212 0.0238 0.0423 0.045 0.0608l0.09-0.18256c-0.0767-0.0794-0.18786-0.13229-0.32279-0.13229-0.17727 0-0.35719 0.0899-0.43657 0.26193l8e-3 -0.23283z"/>
      <path d="m164.03 173.17c-0.11112-0.12171-0.27252-0.18785-0.45244-0.18785-0.28045 0-0.46302 0.1561-0.46302 0.33602 0 0.21166 0.22755 0.28839 0.29369 0.3122 0.10319 0.0371 0.23548 0.0688 0.32544 0.11113 0.10054 0.0476 0.11906 0.11112 0.11906 0.15346 0 0.11377-0.13758 0.1905-0.30956 0.1905-0.20638 0-0.33867-0.12436-0.37835-0.16669-8e-3 -0.0106-8e-3 -0.0185-8e-3 -0.0291 0-3e-3 3e-3 -0.0185-0.0106-0.0238l-0.11112 0.18786c0.14287 0.13229 0.32808 0.19314 0.51064 0.19314 0.33073 0 0.50271-0.19579 0.50271-0.37835 0-0.082-0.0344-0.19315-0.17727-0.27252-0.13494-0.0767-0.33073-0.10319-0.4445-0.15875-0.0979-0.0476-0.11906-0.10583-0.11906-0.14817 0-0.0952 0.11906-0.16404 0.254-0.16404 0.17462 0 0.29104 0.10583 0.33602 0.16669 8e-3 8e-3 5e-3 0.0159 5e-3 0.0238 0 0.0159 0.0106 0.0212 0.0159 0.0212z"/>
     </g>
    </g>
    <path d="m161.04 156.58v-7.1791h69.309v6.8208" fill="none" stroke="#47d58a" stroke-linecap="round" stroke-width=".22049"/>
    <g>
     <rect transform="matrix(.70711 -.70711 -.70711 -.70711 0 0)" x="3.2189" y="-224.52" width="1.7639" height="1.7639" fill="#1d232d" stroke="#47d58a" stroke-linecap="round" stroke-width=".22049"/>
     <circle transform="matrix(0,-1,-1,0,0,0)" cx="-155.23" cy="-161.04" r=".44097" fill="#47d58a"/>
     <g transform="scale(-1)" fill="#e8eaec" stroke="#cf2f25" stroke-linecap="round" stroke-width=".22049" aria-label="*">
      <path d="m-229.06-155.38 0.0397 0.46831-0.42598-0.20108-0.0688 0.17198 0.45773 0.13758-0.3466 0.39687 0.14552 0.11642 0.29633-0.43921 0.28575 0.43656 0.14287-0.11377-0.33337-0.39952 0.45508-0.13493-0.0714-0.16405-0.42068 0.19315 0.0423-0.39687c3e-3 -0.0344 0.0106-0.0397 0.0159-0.0714z" fill="#e8eaec" stroke="none"/>
     </g>
     <g fill="#e8eaec" stroke-linecap="round" stroke-width=".22049" aria-label="gameObjects">
      <path d="m184.61 147.37c0-0.14552 0.12171-0.26458 0.26723-0.26458 0.14817 0 0.26723 0.11906 0.26723 0.26458s-0.11906 0.26458-0.26723 0.26458-0.26723-0.11906-0.26723-0.26458zm0.27781-0.4154c-0.24077 0-0.44979 0.1905-0.44979 0.42598 0 0.13229 0.0661 0.25665 0.17727 0.32808-0.0873 0.0741-0.13758 0.15611-0.13758 0.23284 0 0.0503 0.0212 0.12171 0.0979 0.16139-0.12964 0.082-0.19579 0.17198-0.19579 0.26723 0 0.13229 0.12171 0.2884 0.54504 0.2884 0.41011 0 0.55827-0.20902 0.55827-0.37042 0-0.10583-0.0608-0.21167-0.18785-0.26194-0.127-0.0529-0.27252-0.0344-0.4101-0.0344-0.09 0-0.14817-8e-3 -0.17198-0.0159-0.0476-0.0132-0.0741-0.0423-0.0741-0.0794 0-0.0635 0.0741-0.12436 0.0873-0.13494 0.0476 0.0185 0.10054 0.0265 0.15345 0.0265 0.23813 0 0.43392-0.1905 0.43392-0.41275 0-0.0741-0.0212-0.14552-0.0608-0.20637 0.0635-0.037 0.13758-0.0582 0.21166-0.0582 0.0238 0 0.045 3e-3 0.0688 8e-3l-0.0212-0.1561c-0.12171-0.0106-0.24342 0.0291-0.33602 0.10583-0.0767-0.0741-0.17727-0.11377-0.2884-0.11377zm-0.18256 1.1827c0.045 5e-3 0.10848 0.0106 0.20108 0.0159 0.09 3e-3 0.18786-5e-3 0.25665 5e-3 0.11112 0.0185 0.14552 0.0873 0.14552 0.14022 0 0.0529-0.0318 0.11642-0.11377 0.1614-0.09 0.0476-0.1905 0.0529-0.27252 0.0529-0.0556 0-0.15875-3e-3 -0.24871-0.0397-0.0979-0.0397-0.11906-0.10583-0.11906-0.14817 0-0.0873 0.082-0.15081 0.15081-0.18785z"/>
      <path d="m185.84 147.14 0.0926 0.12171c0.10055-0.10319 0.23548-0.13494 0.34925-0.13494 0.14288 0 0.21432 0.0609 0.24871 0.11642 0.0397 0.0661 0.037 0.14552 0.037 0.20902v0.0423h-0.037c-0.17991 0-0.37041 0-0.52387 0.0556-0.1905 0.0688-0.27517 0.21167-0.27517 0.34396 0 0.17727 0.15346 0.34396 0.40481 0.34396 0.14817 0 0.30163-0.0556 0.43392-0.16404v0.13229h0.17992v-0.74877c0-0.0979-3e-3 -0.1905-0.0582-0.28575-0.0794-0.12965-0.23284-0.19844-0.42069-0.19844-0.16139 0-0.3175 0.0503-0.43127 0.16669zm0.73554 0.50006v0.082c0 0.0609 0 0.14023-0.082 0.22754-0.045 0.045-0.15875 0.14288-0.3175 0.14288-0.16139 0-0.254-0.10319-0.254-0.20902 0-0.09 0.0609-0.18786 0.21167-0.2249 0.11112-0.0265 0.27252-0.0185 0.39952-0.0185z"/>
      <path d="m187.02 148.2h0.17462v-0.80433c0-0.0582 5e-3 -0.11113 0.0397-0.17463 0.0423-0.0794 0.0952-0.11112 0.14552-0.11112 0.0423 0 0.09 0.0265 0.11112 0.0926 0.0159 0.0503 0.0132 0.10848 0.0132 0.15875v0.83873h0.17727v-0.79904c0-0.0635 5e-3 -0.11377 0.0503-0.1905 0.0212-0.0317 0.0661-0.10848 0.14023-0.10848 0.0397 0 0.0767 0.0238 0.0953 0.0688 0.0238 0.0503 0.0185 0.11906 0.0185 0.17463v0.85724h0.17992v-0.85989c0-0.10054 3e-3 -0.20108-0.0503-0.2831-0.045-0.0688-0.12171-0.0953-0.18785-0.0953-0.11642 0-0.2249 0.0688-0.27252 0.17462-0.0185-0.10054-0.10319-0.17462-0.21167-0.17462-0.10054 0-0.19315 0.0635-0.24871 0.14816l3e-3 -0.11906h-0.17727z"/>
      <path d="m188.93 146.97c-0.2884 0-0.55562 0.20637-0.55562 0.64558 0 0.40481 0.25135 0.61912 0.57943 0.61912 0.17463 0 0.33073-0.0635 0.43392-0.18785l-0.10583-0.10319c-0.0767 0.09-0.19315 0.13758-0.31221 0.13758-0.1614 0-0.39688-0.0899-0.41011-0.45243h0.85725c8e-3 -0.082 5e-3 -0.1614-8e-3 -0.23019-0.0556-0.32544-0.28046-0.42862-0.4789-0.42862zm-0.36512 0.51329c0.0397-0.28575 0.22225-0.36777 0.35189-0.36777 0.19579 0 0.33602 0.17198 0.31221 0.36777z"/>
      <path d="m190.81 147.38c0-0.15346-0.0106-0.35719-0.10054-0.53446-0.10848-0.21166-0.29634-0.30956-0.47625-0.30956-0.24607 0-0.59267 0.1905-0.59267 0.83873s0.34131 0.85196 0.59531 0.85196c0.17727 0 0.36777-0.10054 0.47625-0.32015 0.0873-0.17727 0.0979-0.381 0.0979-0.52652zm-0.58473-0.67204c0.11641 0 0.25929 0.0688 0.33602 0.26194 0.0556 0.13758 0.0635 0.29633 0.0635 0.43391 0 0.10848-5e-3 0.27782-0.0741 0.41805-0.0767 0.16139-0.20373 0.22489-0.31486 0.22489-0.18521 0-0.41275-0.17198-0.41275-0.69585 0-0.49213 0.23019-0.64294 0.40217-0.64294z"/>
      <path d="m191.05 146.44v1.7595h0.12435l0.0662-0.15875c0.0794 0.11906 0.21167 0.1905 0.35719 0.1905 0.2487 0 0.50535-0.21167 0.50535-0.65088 0-0.42068-0.24871-0.61647-0.48683-0.61647-0.15346 0-0.29634 0.082-0.37306 0.21431v-0.67733c0-0.0159 3e-3 -0.0212 0.0159-0.0317 5e-3 -3e-3 0.0185-0.0132 0.0159-0.0291zm0.50006 0.68792c0.11377 0 0.35454 0.0661 0.35454 0.49477 0 0.36777-0.23812 0.43656-0.35718 0.43656-0.082 0-0.26459-0.0317-0.29634-0.26458-8e-3 -0.0609-8e-3 -0.13229-8e-3 -0.23813 0-0.10848 5e-3 -0.18785 0.0317-0.254 0.045-0.10848 0.1561-0.17462 0.27516-0.17462z"/>
      <path d="m192.54 146.99v0.15875h0.45244v1.0028c0 0.0661-3e-3 0.12965-0.0318 0.19315-0.045 0.0979-0.14023 0.15346-0.24342 0.15346-0.14552 0-0.2249-0.10584-0.23548-0.12171-0.0106-0.0185-5e-3 -0.0344-0.0238-0.0476l-0.12171 0.16405c0.0873 0.10848 0.2196 0.16933 0.36777 0.16933 0.17463 0 0.34131-0.082 0.42333-0.24077 0.0529-0.10319 0.0556-0.20108 0.0556-0.30427v-1.1271zm0.55033-0.52387c-0.0767 0-0.13758 0.0608-0.13758 0.13494 0 0.0741 0.0608 0.13494 0.13758 0.13494 0.0741 0 0.13494-0.0609 0.13494-0.13494 0-0.0741-0.0608-0.13494-0.13494-0.13494z"/>
      <path d="m194.22 146.97c-0.2884 0-0.55562 0.20637-0.55562 0.64558 0 0.40481 0.25135 0.61912 0.57943 0.61912 0.17463 0 0.33073-0.0635 0.43392-0.18785l-0.10583-0.10319c-0.0767 0.09-0.19315 0.13758-0.31221 0.13758-0.1614 0-0.39688-0.0899-0.41011-0.45243h0.85725c8e-3 -0.082 5e-3 -0.1614-8e-3 -0.23019-0.0556-0.32544-0.28045-0.42862-0.47889-0.42862zm-0.36512 0.51329c0.0397-0.28575 0.22224-0.36777 0.35189-0.36777 0.19579 0 0.33602 0.17198 0.31221 0.36777z"/>
      <path d="m196.06 147.2c-0.0952-0.14023-0.25665-0.2249-0.45244-0.2249-0.35454 0-0.60589 0.26723-0.60589 0.62971 0 0.36512 0.25135 0.635 0.59531 0.635 0.16669 0 0.33073-0.0688 0.4445-0.19315l-0.10848-0.127c-0.082 0.0926-0.20108 0.14552-0.32015 0.14552-0.23548 0-0.41539-0.19579-0.41539-0.47889 0-0.27517 0.17727-0.44715 0.39952-0.44715 0.20637 0 0.30427 0.14288 0.31221 0.15875 0.0106 0.0185-5e-3 0.045 0.0159 0.0609z"/>
      <path d="m196.68 146.67-0.0238 0.32544h-0.2884l-3e-3 0.1561h0.2831c-0.0159 0.20638-0.0238 0.41275-0.0238 0.61648 0 0.10848 0 0.23019 0.0714 0.33073 0.0582 0.0794 0.15081 0.127 0.27516 0.127 0.14288 0 0.28311-0.0608 0.38629-0.13494l-0.0582-0.15081c-0.10319 0.0767-0.19844 0.11113-0.27252 0.11113-0.09 0-0.18257-0.0503-0.20373-0.19579 0-0.0106-8e-3 -0.0556-8e-3 -0.23284 0-0.1561 8e-3 -0.31485 0.0238-0.47096h0.39688v-0.15875h-0.39423s0.0185-0.21695 0.0317-0.28574c3e-3 -0.0265 0.0238-0.0423 0.0132-0.0714z"/>
      <path d="m198.65 147.16c-0.11113-0.12171-0.27252-0.18785-0.45244-0.18785-0.28046 0-0.46302 0.1561-0.46302 0.33602 0 0.21166 0.22754 0.28839 0.29369 0.3122 0.10319 0.037 0.23548 0.0688 0.32544 0.11113 0.10054 0.0476 0.11906 0.11112 0.11906 0.15346 0 0.11377-0.13758 0.1905-0.30956 0.1905-0.20638 0-0.33867-0.12436-0.37836-0.16669-8e-3 -0.0106-8e-3 -0.0185-8e-3 -0.0291 0-3e-3 3e-3 -0.0185-0.0106-0.0238l-0.11112 0.18786c0.14287 0.13229 0.32808 0.19314 0.51064 0.19314 0.33073 0 0.50271-0.19579 0.50271-0.37835 0-0.082-0.0344-0.19315-0.17727-0.27252-0.13494-0.0767-0.33073-0.10319-0.4445-0.15875-0.0979-0.0476-0.11906-0.10583-0.11906-0.14817 0-0.0952 0.11906-0.16404 0.254-0.16404 0.17462 0 0.29104 0.10583 0.33602 0.16669 8e-3 8e-3 5e-3 0.0159 5e-3 0.0238 0 0.0159 0.0106 0.0212 0.0159 0.0212z"/>
     </g>
    </g>
   </g>
  </g>
 </g>
</svg>
